<?xml version="1.0" encoding="utf-8"?>
<!-- Generator: Adobe Illustrator 26.0.1, SVG Export Plug-In . SVG Version: 6.00 Build 0)  -->
<svg version="1.1" id="Layer_1" xmlns="http://www.w3.org/2000/svg" xmlns:xlink="http://www.w3.org/1999/xlink" x="0px" y="0px"
	 viewBox="0 0 667 448.3" style="enable-background:new 0 0 667 448.3;" xml:space="preserve">
<style type="text/css">
	.st0{fill:#00E9BA;}
	.st1{fill:url(#SVGID_1_);}
	.st2{fill:url(#SVGID_00000021119537909503434770000007364746775572136874_);}
	.st3{fill:url(#SVGID_00000052063276527561405730000009101239153048612763_);}
	.st4{fill:url(#SVGID_00000039114404195613881450000002630621273029035433_);}
	.st5{fill:url(#SVGID_00000089534110860045605820000010777040369603668874_);}
	.st6{fill:url(#SVGID_00000143618219436294596880000015691265112263404706_);}
	.st7{fill:#FFFFFF;}
	.st8{fill:url(#SVGID_00000026163648723510976780000015722388932340764337_);}
	.st9{fill:url(#SVGID_00000048485807893133708050000009528119203120664740_);}
	.st10{fill:url(#SVGID_00000054239835199522651700000002072990339389479609_);}
	.st11{fill:url(#SVGID_00000151517795278088707820000009354414682840081547_);}
	.st12{fill:url(#SVGID_00000124134757260442558500000000952860889071395001_);}
	.st13{fill:url(#SVGID_00000024724585804520106170000005831001473031607475_);}
	.st14{fill:url(#SVGID_00000106851117778740596130000006182939676130068114_);}
	.st15{fill:url(#SVGID_00000011005052695696284020000008810168143300017295_);}
	.st16{fill:url(#SVGID_00000061449880002075095040000011282248979930914478_);}
	.st17{fill:url(#SVGID_00000161610757314695741830000000766600792595034526_);}
	.st18{fill:url(#SVGID_00000122689531521029147260000005784384440683268253_);}
	.st19{fill:url(#SVGID_00000085972219196705140890000013211228186670328751_);}
	.st20{fill:url(#SVGID_00000062176020301810601990000005592933199338366899_);}
	.st21{fill:url(#SVGID_00000106859085141337741820000008932826670588958387_);}
	.st22{fill:url(#SVGID_00000021815309908519113450000007727678773399273382_);}
	.st23{fill:url(#SVGID_00000098219054091720656710000004245736729006030485_);}
	.st24{fill:url(#SVGID_00000005951396664171761280000011471544810279187870_);}
	.st25{fill:url(#SVGID_00000044875525094245802120000005866721373629134492_);}
	.st26{fill:url(#SVGID_00000170241110815987991020000006561307600232017065_);}
	.st27{opacity:0.5;fill:#FFFFFF;}
	.st28{fill:url(#SVGID_00000067228765238616769060000017945041901562759091_);}
	.st29{fill:url(#SVGID_00000167358304328816499980000018042285998260980907_);}
	.st30{fill:url(#SVGID_00000097480231613644008440000016810784576934500489_);}
	.st31{fill:url(#SVGID_00000124866554720230297140000016126592802026300307_);}
	.st32{fill:url(#SVGID_00000179628072208287960900000007610677334683967395_);}
	.st33{fill:url(#SVGID_00000001625123724158836580000010929660431333796995_);}
	.st34{fill:url(#SVGID_00000145738762899617037930000016125924242065827750_);}
	.st35{fill:url(#SVGID_00000023978573932907759850000003284295693565651853_);}
	.st36{fill:url(#SVGID_00000047052395452476931180000016018504372840157347_);}
	.st37{fill:url(#SVGID_00000147905081217958832120000018430136020510395033_);}
	.st38{fill:url(#SVGID_00000112602000367802192930000009082331724492961718_);}
	.st39{fill:url(#SVGID_00000074423157653740686900000006488633652978522556_);}
	.st40{fill:url(#SVGID_00000165233568595577581120000014779997855999108485_);}
	.st41{fill:url(#SVGID_00000005251187446338396920000014406089313182529459_);}
	.st42{fill:url(#SVGID_00000056388498703928672240000004164453567195390134_);}
	.st43{fill:url(#SVGID_00000075126093205762872440000002043070243483394202_);}
	.st44{fill:url(#SVGID_00000013903957392284401810000017264695830957739681_);}
	.st45{fill:url(#SVGID_00000141424103743188170020000012572083014147171982_);}
	.st46{fill:url(#SVGID_00000046321234214308075800000000209535041299813547_);}
	.st47{fill:url(#SVGID_00000113350175661036035780000007215850030948324997_);}
	.st48{fill:url(#SVGID_00000106854591850976181150000011122250374456123300_);}
	.st49{fill:url(#SVGID_00000012467651068727136500000018149065034327082128_);}
	.st50{fill:url(#SVGID_00000091722636141107926040000005786171630202052501_);}
	.st51{fill:url(#SVGID_00000036228633895519040570000003814087674700267422_);}
	.st52{fill:url(#SVGID_00000093857915680343314190000000400601720228339103_);}
	.st53{fill:url(#SVGID_00000099648190823801074750000008809628482697566905_);}
	.st54{fill:url(#SVGID_00000166677786752241570170000009076030454154648711_);}
</style>
<g>
	<path class="st7" d="M56.1,408.3c2.6-3.8,1.5-9.6,1.8-14c0.2-5.7-0.8-11.1-5.3-15c-3.4-2.8-7.2-2.8-11.4-3c-12.2,0-24.5,0-36.7,0
		c-1.4,0-2.9-0.1-4.2,0.4c-0.3,2.3-0.2,4.7-0.2,7c0.1,21.5,0,43,0.1,64.6c12.5,0.3,25,0,37.4,0.2c5.3-0.3,10.3,0,14.7-3.5
		c3.7-2.6,5.1-6.6,4.8-11.1c-0.4-6.5,1.1-12.2-1.8-17.6c-0.8-2-2.4-3.1-4-4.4C53.1,410.8,54.9,410.2,56.1,408.3z M41,430.8
		c-2.4,2.2-5.8,2.2-8.8,2.2c-5.7-0.1-11.4,0.1-17.1-0.1c-0.9-1.5-0.2-4.6-0.4-6.4c0-2.3-0.1-4.6,0.1-6.9c4.9-0.2,9.8,0,14.7-0.1
		c2.7,0.1,5.6-0.2,8.2,0.3C42.3,420.9,44.3,427.5,41,430.8z M41.5,401.8c-1.6,2-4.2,2.6-6.6,2.6c-6.7,0-13.4-0.1-20,0
		c-0.2-4.4-0.2-8.9,0-13.2c5.2-0.2,10.4,0,15.6-0.1c2.4,0,5-0.2,7.3,0.3C41.9,392.5,44.1,398.3,41.5,401.8z"/>
	<path class="st7" d="M125.8,432.8c0-3.6,0.1-7.7-1.1-11.1c-1.7-4.3-3.9-8.1-8.3-10c2.7-1.3,5.2-2.5,6.9-5.2c2-3,2.2-6.2,2.1-9.6
		c-0.1-4.6,0.6-8.6-1.6-12.9c-2-4.4-6.1-7.4-11.1-7.4c-10.5,0-20.9-0.1-31.4-0.2c-4.3-0.1-8.9-0.9-13.1,0c-0.3,19.3,0,38.7-0.1,58
		c0.1,4.4-0.2,8.8,0.1,13.2l0.5,0.4c4.5,0.3,9.1,0.1,13.6,0.1c0.3-9.5,0.1-19.1,0.2-28.6c6.4,0,12.9,0,19.3,0c2.5,0.1,4.9,0,6.9,1.8
		c1.9,1.7,2,4.5,2.2,6.9c0.1,6.6,0,13.2,0.1,19.8c4.8,0.3,9.7,0.1,14.5,0.1C125.9,443,125.8,437.9,125.8,432.8z M110.3,401.6
		c-1,2.3-3.2,3.1-5.6,3.1c-7.3,0-14.7,0.2-22-0.3c-0.1-4.4-0.2-8.8,0-13.2c5.5-0.2,11,0,16.5-0.1c3.2,0.1,6-0.5,8.8,1.5
		C111.4,394.5,111.3,398.4,110.3,401.6z"/>
	<path class="st7" d="M151,391.3c0,4.4,0.1,8.8-0.1,13.2c9.4,0.6,18.9,0,28.4,0.3c0,4.9,0.2,9.8,0,14.6l-0.4,0.4
		c-9.3,0.2-18.6,0-27.9,0.1c0,4.4,0,8.9-0.1,13.3c13.9,0.4,27.9,0,41.8,0.2c0,4.9,0.1,9.9,0,14.8c-18,0.1-36,0-54,0
		c-1.5,0-3,0-2.9-2c0-23.4-0.1-46.8,0-70.1c10.2-0.1,20.4,0.1,30.6,0c8.7,0.6,17.4,0.3,26.1,0.3c0.2,4.9,0.3,9.9,0,14.8
		C178.8,391.2,164.9,391.3,151,391.3z"/>
	<path class="st7" d="M218.2,391.3c0,4.5-0.2,9,0.1,13.5c9.3-0.1,18.7-0.1,28,0c0,5,0.1,10.1-0.1,15.1c-9.3,0-18.7,0-28,0
		c0,4.4,0,8.9-0.1,13.3c13.9,0.4,27.9,0,41.8,0.2c0,4.9,0.1,9.9-0.1,14.8c-18,0.2-35.9,0-53.9,0.1c-1.5,0-3.2,0-3-2
		c0-23.4,0-46.8,0-70.1c10.2-0.1,20.5,0.1,30.7,0c8.7,0.6,17.4,0.2,26.1,0.3c0.2,4.9,0.3,9.9,0,14.8
		C245.9,391.2,232.1,391.3,218.2,391.3z"/>
	<path class="st7" d="M327.6,391.6c-0.1-4.4-0.9-8.6-4.2-11.8c-3-3-6.8-3.5-10.9-3.6c-14.1,0-28.2,0-42.3,0c-0.1,24-0.1,48,0,71.9
		c14.1,0.2,28.2,0,42.3,0.1c5,0.1,10.6-2.3,13.2-6.7c2-3.3,1.8-6.8,1.9-10.5C327.6,417.8,327.7,404.7,327.6,391.6z M312.7,427.4
		c0.1,3.7-3.1,5.7-6.5,5.7c-7.1,0-14.2,0.1-21.3-0.1c0.1-13.8-0.1-27.6,0.1-41.3c6.2-0.2,12.4,0,18.5-0.1c1.8,0.1,3.9-0.1,5.6,0.5
		c2.4,1.3,3.6,3.9,3.5,6.5C312.7,408.3,312.8,417.9,312.7,427.4z"/>
	<linearGradient id="SVGID_1_" gradientUnits="userSpaceOnUse" x1="392.4568" y1="150.4575" x2="423.0723" y2="150.4575">
		<stop  offset="0" style="stop-color:#00E9BA"/>
		<stop  offset="1" style="stop-color:#F800FF"/>
	</linearGradient>
	<path class="st1" d="M422.6,154.2c-1.6,6.8-8.1,11.8-15.1,11.6c-7.2-0.1-13.6-5.5-14.8-12.6c-1.3-7.3,2.9-14.6,9.9-17.1
		c4.6-1.7,9.9-1,13.9,1.9C421.6,141.5,424.2,148.1,422.6,154.2z"/>
	
		<linearGradient id="SVGID_00000077314465251685972230000006967431461628575160_" gradientUnits="userSpaceOnUse" x1="392.4568" y1="150.4575" x2="423.0723" y2="150.4575">
		<stop  offset="0" style="stop-color:#00E9BA"/>
		<stop  offset="1" style="stop-color:#F800FF"/>
	</linearGradient>
	<path style="fill:url(#SVGID_00000077314465251685972230000006967431461628575160_);" d="M422.6,154.2c-1.6,6.8-8.1,11.8-15.1,11.6
		c-7.2-0.1-13.6-5.5-14.8-12.6c-1.3-7.3,2.9-14.6,9.9-17.1c4.6-1.7,9.9-1,13.9,1.9C421.6,141.5,424.2,148.1,422.6,154.2z"/>
	
		<linearGradient id="SVGID_00000021082089266788355410000009600787417956987298_" gradientUnits="userSpaceOnUse" x1="392.4568" y1="150.4575" x2="423.0723" y2="150.4575">
		<stop  offset="0" style="stop-color:#00E9BA"/>
		<stop  offset="1" style="stop-color:#F800FF"/>
	</linearGradient>
	<path style="fill:url(#SVGID_00000021082089266788355410000009600787417956987298_);" d="M422.6,154.2c-1.6,6.8-8.1,11.8-15.1,11.6
		c-7.2-0.1-13.6-5.5-14.8-12.6c-1.3-7.3,2.9-14.6,9.9-17.1c4.6-1.7,9.9-1,13.9,1.9C421.6,141.5,424.2,148.1,422.6,154.2z"/>
	
		<linearGradient id="SVGID_00000163786931433077046760000005934015677749380281_" gradientUnits="userSpaceOnUse" x1="392.4568" y1="150.4575" x2="423.0723" y2="150.4575">
		<stop  offset="0" style="stop-color:#00E9BA"/>
		<stop  offset="1" style="stop-color:#F800FF"/>
	</linearGradient>
	<path style="fill:url(#SVGID_00000163786931433077046760000005934015677749380281_);" d="M422.6,154.2c-1.6,6.8-8.1,11.8-15.1,11.6
		c-7.2-0.1-13.6-5.5-14.8-12.6c-1.3-7.3,2.9-14.6,9.9-17.1c4.6-1.7,9.9-1,13.9,1.9C421.6,141.5,424.2,148.1,422.6,154.2z"/>
	
		<linearGradient id="SVGID_00000163050048429799280900000016515745677147698345_" gradientUnits="userSpaceOnUse" x1="392.4568" y1="150.4575" x2="423.0723" y2="150.4575">
		<stop  offset="0" style="stop-color:#00E9BA"/>
		<stop  offset="1" style="stop-color:#F800FF"/>
	</linearGradient>
	<path style="fill:url(#SVGID_00000163050048429799280900000016515745677147698345_);" d="M422.6,154.2c-1.6,6.8-8.1,11.8-15.1,11.6
		c-7.2-0.1-13.6-5.5-14.8-12.6c-1.3-7.3,2.9-14.6,9.9-17.1c4.6-1.7,9.9-1,13.9,1.9C421.6,141.5,424.2,148.1,422.6,154.2z"/>
	
		<linearGradient id="SVGID_00000013163000563793393250000003924127960197936812_" gradientUnits="userSpaceOnUse" x1="392.4568" y1="150.4575" x2="423.0723" y2="150.4575">
		<stop  offset="0" style="stop-color:#00E9BA"/>
		<stop  offset="1" style="stop-color:#F800FF"/>
	</linearGradient>
	<path style="fill:url(#SVGID_00000013163000563793393250000003924127960197936812_);" d="M422.6,154.2c-1.6,6.8-8.1,11.8-15.1,11.6
		c-7.2-0.1-13.6-5.5-14.8-12.6c-1.3-7.3,2.9-14.6,9.9-17.1c4.6-1.7,9.9-1,13.9,1.9C421.6,141.5,424.2,148.1,422.6,154.2z"/>
	
		<linearGradient id="SVGID_00000111157199048318423950000002561895083008466104_" gradientUnits="userSpaceOnUse" x1="392.4568" y1="150.4575" x2="423.0723" y2="150.4575">
		<stop  offset="0" style="stop-color:#00E9BA"/>
		<stop  offset="1" style="stop-color:#F800FF"/>
	</linearGradient>
	<path style="fill:url(#SVGID_00000111157199048318423950000002561895083008466104_);" d="M422.6,154.2c-1.6,6.8-8.1,11.8-15.1,11.6
		c-7.2-0.1-13.6-5.5-14.8-12.6c-1.3-7.3,2.9-14.6,9.9-17.1c4.6-1.7,9.9-1,13.9,1.9C421.6,141.5,424.2,148.1,422.6,154.2z"/>
	
		<linearGradient id="SVGID_00000064346052131780756850000000329116110702785978_" gradientUnits="userSpaceOnUse" x1="392.4568" y1="150.4575" x2="423.0723" y2="150.4575">
		<stop  offset="0" style="stop-color:#00E9BA"/>
		<stop  offset="1" style="stop-color:#F800FF"/>
	</linearGradient>
	<path style="fill:url(#SVGID_00000064346052131780756850000000329116110702785978_);" d="M422.6,154.2c-1.6,6.8-8.1,11.8-15.1,11.6
		c-7.2-0.1-13.6-5.5-14.8-12.6c-1.3-7.3,2.9-14.6,9.9-17.1c4.6-1.7,9.9-1,13.9,1.9C421.6,141.5,424.2,148.1,422.6,154.2z"/>
	<g>
		
			<linearGradient id="SVGID_00000101804623188568531240000003466756633046815145_" gradientUnits="userSpaceOnUse" x1="334.046" y1="1.516148e-03" x2="334.046" y2="300.308">
			<stop  offset="0" style="stop-color:#00E9BA"/>
			<stop  offset="1" style="stop-color:#F800FF"/>
		</linearGradient>
		<path style="fill:url(#SVGID_00000101804623188568531240000003466756633046815145_);" d="M553.9,135.3c-2.1-23.1-9.7-45.6-22-65.3
			c-14.1-22.5-34.2-41.1-57.7-53.3C454.7,6.6,433,0.8,411.1,0.2c-6.6-0.3-13.1-0.1-19.7-0.2c-29.2,0.1-58.5-0.1-87.7,0.1
			c-23.9-0.2-47.9,0-71.8-0.1c-8.4,0.1-16-0.6-24.2,1.7c-12.9,3.6-24,12.8-29.9,24.9c-7.2,14.4-6.4,32.3,2.1,46
			c6.9,11.3,18.5,19.4,31.5,21.9c5.1,1.1,10,0.8,15.1,0.9c17.9,0,35.9,0,53.8,0c3.8,0.1,7.6-1.7,10.2-4.5c3.5-4,4.6-9.8,2.4-14.7
			c-2.1-5-7.2-8.3-12.6-8.3c-20-0.1-40,0-60-0.1c-6.4-0.1-12.5-3.3-16.1-8.6c-4.6-6.4-4.9-15.5-0.6-22.1c3.6-5.8,9.9-9.4,16.7-9.5
			c25.1,0,50.2,0,75.3-0.1c14.2,0.1,28.2,5.8,38.1,15.9c9.7,9.5,15.4,22.8,16,36.3c0.5,12.9-3.8,25.9-11.8,36
			c-9.9,12.5-25.4,20.3-41.4,20.5c-25.7,0.1-51.4,0-77.1,0.1c-18.9,0.3-36.3,12.6-43.1,30.2c-4.5,11.4-4.4,24.5,0.3,35.8
			c5.3,13,16.6,23.3,30,27.3c4.7,1.5,9.6,2.1,14.6,2.1c19.7,0,39.5,0,59.2,0c6.6,0,12.3-4.8,13.4-11.3c1.3-6.3-2.4-12.7-8.2-15.1
			c-2.4-1-5.3-1.1-7.9-1.1c-18.8,0-37.6,0-56.4,0c-4.2,0-8.3-1-11.7-3.4c-6.2-4.1-9.7-11.6-8.9-18.9c0.7-7,5.3-13.3,11.7-16.2
			c3.4-1.6,7-1.8,10.7-1.9c24.2,0,48.4,0,72.6,0c11.6,0.1,23,3.9,32.3,10.8c10.3,7.6,17.7,18.9,20.5,31.4
			c3.3,13.7,0.8,28.7-6.7,40.7c-9.5,15.6-26.9,25.7-45.2,26c-42.7,0-85.4,0-128.1,0c-11.9-0.2-22.8-8.6-26.1-20
			c-1.3-4.2-1.2-8.3-1.1-12.6c0-73.7,0-147.5,0-221.3c0-4.2,0.4-8.3-1.9-12.1c-2.8-4.8-8.5-7.5-14-6.6c-5.8,0.8-10.8,5.7-11.5,11.5
			c-0.3,3-0.2,6-0.2,9c0,72.9,0,145.7,0,218.6c-0.1,7.4,0.1,14.7,2.4,21.8c5.4,18.1,20.5,32.7,38.8,37.4c8.8,2.4,17,1.7,26,1.8
			c40.3,0,80.6,0,120.9,0c34.7,0,69.3,0,104,0c19.2-0.1,38.4-3.7,56.2-11.1c24.9-10.2,47-27.3,63.1-48.9
			c14.9-19.9,24.7-43.6,28.1-68.2C554.8,160,554.8,147.5,553.9,135.3z M341,150.4c1-1.1,2.1-2,3.4-2.9c17.3-12.8,28.9-32.6,32-53.9
			c8.6-0.1,17.2,0,25.7,0c17,0.2,33.6,8.5,43.9,22c9.2,11.8,13.4,27.4,11.3,42.2c-1.3,9.8-5.2,19.1-11.3,26.9
			c-10.1,13.3-26.3,21.6-43,22c-8.9,0.1-17.7,0-26.6,0.1c-1.1-6.1-2.5-12.1-4.7-17.8C365.8,173.4,354.9,159.7,341,150.4z
			 M515.7,202.3c-10.8,23.4-29.3,43.2-52,55.5c-18.2,10-39,15.2-59.8,14.9c-15.8,0-31.5,0.1-47.3,0c9.7-11.3,16-23.9,19.1-38.5
			c9.4,0.1,18.8,0.1,28.2,0c13.1-0.4,26.1-3.9,37.6-10.2c16.2-8.8,29.5-23.2,36.8-40.2c5.7-12.9,8-27.3,6.7-41.3
			c-1.4-15.5-7.2-30.6-16.6-43c-15.3-20.4-39.9-33.1-65.4-33.4c-9.1,0-18.3,0-27.4,0c-2.6-13.9-9.3-27.6-18.8-38
			c2.6-0.8,5.1-0.5,7.7-0.5c14.6,0,29.3,0,43.9,0c14.1,0.4,28.1,3.1,41.2,8.3c19,7.4,36,19.6,49,35.2c14.9,17.7,24.5,39.7,27.4,62.6
			C529,157,525.7,181,515.7,202.3z M407.5,165.7c7,0.2,13.5-4.8,15.1-11.6c1.7-6.1-1-12.7-6.1-16.2c-4-2.9-9.3-3.5-13.9-1.9
			c-7,2.4-11.2,9.8-9.9,17.1C393.9,160.3,400.3,165.7,407.5,165.7z"/>
		
			<linearGradient id="SVGID_00000116919415035074692190000014961287067553682823_" gradientUnits="userSpaceOnUse" x1="407.7646" y1="135.182" x2="407.7646" y2="165.733">
			<stop  offset="0" style="stop-color:#00E9BA"/>
			<stop  offset="1" style="stop-color:#F800FF"/>
		</linearGradient>
		<path style="fill:url(#SVGID_00000116919415035074692190000014961287067553682823_);" d="M422.6,154.2
			c-1.6,6.8-8.1,11.8-15.1,11.6c-7.2-0.1-13.6-5.5-14.8-12.6c-1.3-7.3,2.9-14.6,9.9-17.1c4.6-1.7,9.9-1,13.9,1.9
			C421.6,141.5,424.2,148.1,422.6,154.2z"/>
	</g>
	
		<linearGradient id="SVGID_00000074428882047422507540000012462303397048382890_" gradientUnits="userSpaceOnUse" x1="392.4568" y1="150.4575" x2="423.0723" y2="150.4575">
		<stop  offset="0" style="stop-color:#00E9BA"/>
		<stop  offset="1" style="stop-color:#F800FF"/>
	</linearGradient>
	<path style="fill:url(#SVGID_00000074428882047422507540000012462303397048382890_);" d="M422.6,154.2c-1.6,6.8-8.1,11.8-15.1,11.6
		c-7.2-0.1-13.6-5.5-14.8-12.6c-1.3-7.3,2.9-14.6,9.9-17.1c4.6-1.7,9.9-1,13.9,1.9C421.6,141.5,424.2,148.1,422.6,154.2z"/>
	
		<linearGradient id="SVGID_00000124129588090296319950000005129870696764625296_" gradientUnits="userSpaceOnUse" x1="392.4568" y1="150.4575" x2="423.0723" y2="150.4575">
		<stop  offset="0" style="stop-color:#00E9BA"/>
		<stop  offset="1" style="stop-color:#F800FF"/>
	</linearGradient>
	<path style="fill:url(#SVGID_00000124129588090296319950000005129870696764625296_);" d="M422.6,154.2c-1.6,6.8-8.1,11.8-15.1,11.6
		c-7.2-0.1-13.6-5.5-14.8-12.6c-1.3-7.3,2.9-14.6,9.9-17.1c4.6-1.7,9.9-1,13.9,1.9C421.6,141.5,424.2,148.1,422.6,154.2z"/>
	
		<linearGradient id="SVGID_00000128457182442373120740000006462781391705650856_" gradientUnits="userSpaceOnUse" x1="392.4568" y1="150.4575" x2="423.0723" y2="150.4575">
		<stop  offset="0" style="stop-color:#00E9BA"/>
		<stop  offset="1" style="stop-color:#F800FF"/>
	</linearGradient>
	<path style="fill:url(#SVGID_00000128457182442373120740000006462781391705650856_);" d="M422.6,154.2c-1.6,6.8-8.1,11.8-15.1,11.6
		c-7.2-0.1-13.6-5.5-14.8-12.6c-1.3-7.3,2.9-14.6,9.9-17.1c4.6-1.7,9.9-1,13.9,1.9C421.6,141.5,424.2,148.1,422.6,154.2z"/>
	
		<linearGradient id="SVGID_00000008148118670002381280000017139936637498347951_" gradientUnits="userSpaceOnUse" x1="392.4568" y1="150.4575" x2="423.0723" y2="150.4575">
		<stop  offset="0" style="stop-color:#00E9BA"/>
		<stop  offset="1" style="stop-color:#F800FF"/>
	</linearGradient>
	<path style="fill:url(#SVGID_00000008148118670002381280000017139936637498347951_);" d="M422.6,154.2c-1.6,6.8-8.1,11.8-15.1,11.6
		c-7.2-0.1-13.6-5.5-14.8-12.6c-1.3-7.3,2.9-14.6,9.9-17.1c4.6-1.7,9.9-1,13.9,1.9C421.6,141.5,424.2,148.1,422.6,154.2z"/>
	
		<linearGradient id="SVGID_00000167396811341206867490000008335693822450728078_" gradientUnits="userSpaceOnUse" x1="392.4568" y1="150.4575" x2="423.0723" y2="150.4575">
		<stop  offset="0" style="stop-color:#00E9BA"/>
		<stop  offset="1" style="stop-color:#F800FF"/>
	</linearGradient>
	<path style="fill:url(#SVGID_00000167396811341206867490000008335693822450728078_);" d="M422.6,154.2c-1.6,6.8-8.1,11.8-15.1,11.6
		c-7.2-0.1-13.6-5.5-14.8-12.6c-1.3-7.3,2.9-14.6,9.9-17.1c4.6-1.7,9.9-1,13.9,1.9C421.6,141.5,424.2,148.1,422.6,154.2z"/>
	
		<linearGradient id="SVGID_00000060030084827096996820000003469806903791382403_" gradientUnits="userSpaceOnUse" x1="392.4568" y1="150.4575" x2="423.0723" y2="150.4575">
		<stop  offset="0" style="stop-color:#00E9BA"/>
		<stop  offset="1" style="stop-color:#F800FF"/>
	</linearGradient>
	<path style="fill:url(#SVGID_00000060030084827096996820000003469806903791382403_);" d="M422.6,154.2c-1.6,6.8-8.1,11.8-15.1,11.6
		c-7.2-0.1-13.6-5.5-14.8-12.6c-1.3-7.3,2.9-14.6,9.9-17.1c4.6-1.7,9.9-1,13.9,1.9C421.6,141.5,424.2,148.1,422.6,154.2z"/>
	
		<linearGradient id="SVGID_00000048473694971229843350000011718956015407545514_" gradientUnits="userSpaceOnUse" x1="392.4568" y1="150.4575" x2="423.0723" y2="150.4575">
		<stop  offset="0" style="stop-color:#00E9BA"/>
		<stop  offset="1" style="stop-color:#F800FF"/>
	</linearGradient>
	<path style="fill:url(#SVGID_00000048473694971229843350000011718956015407545514_);" d="M422.6,154.2c-1.6,6.8-8.1,11.8-15.1,11.6
		c-7.2-0.1-13.6-5.5-14.8-12.6c-1.3-7.3,2.9-14.6,9.9-17.1c4.6-1.7,9.9-1,13.9,1.9C421.6,141.5,424.2,148.1,422.6,154.2z"/>
	
		<linearGradient id="SVGID_00000157268623677223944580000011575033250195834523_" gradientUnits="userSpaceOnUse" x1="392.4568" y1="150.4575" x2="423.0723" y2="150.4575">
		<stop  offset="0" style="stop-color:#00E9BA"/>
		<stop  offset="1" style="stop-color:#F800FF"/>
	</linearGradient>
	<path style="fill:url(#SVGID_00000157268623677223944580000011575033250195834523_);" d="M422.6,154.2c-1.6,6.8-8.1,11.8-15.1,11.6
		c-7.2-0.1-13.6-5.5-14.8-12.6c-1.3-7.3,2.9-14.6,9.9-17.1c4.6-1.7,9.9-1,13.9,1.9C421.6,141.5,424.2,148.1,422.6,154.2z"/>
	
		<linearGradient id="SVGID_00000103948171430564484540000009733170218190902156_" gradientUnits="userSpaceOnUse" x1="392.4568" y1="150.4575" x2="423.0723" y2="150.4575">
		<stop  offset="0" style="stop-color:#00E9BA"/>
		<stop  offset="1" style="stop-color:#F800FF"/>
	</linearGradient>
	<path style="fill:url(#SVGID_00000103948171430564484540000009733170218190902156_);" d="M422.6,154.2c-1.6,6.8-8.1,11.8-15.1,11.6
		c-7.2-0.1-13.6-5.5-14.8-12.6c-1.3-7.3,2.9-14.6,9.9-17.1c4.6-1.7,9.9-1,13.9,1.9C421.6,141.5,424.2,148.1,422.6,154.2z"/>
	<path class="st7" d="M353.1,391.3c0,4.5,0,8.9,0,13.4c9.3,0,18.7-0.1,28,0c0.1,5,0,10,0.1,15c-9.4,0.3-18.7-0.1-28.1,0.2
		c0.1,4.4,0,8.9,0.1,13.3c11,0,21.9,0,32.9,0c2.9,0,5.9-0.1,8.8,0.2c-0.2,4.7,0.2,9.5-0.2,14.2c-1,0.8-2.9,0.4-4.1,0.5
		c-16.1,0-32.2,0-48.4,0c-1.2-0.1-3.1,0.3-4.1-0.5c-0.3-2.3-0.1-4.6-0.2-6.9c0-21.5,0-43.1,0-64.6c6.2-0.3,12.4,0,18.6-0.1
		c6,0.1,11.9-0.2,17.9,0.3c6.8,0.2,13.6-0.1,20.3,0.1c0.2,4.9,0.1,9.8,0,14.6C380.8,391.4,367,391.1,353.1,391.3z"/>
	<path class="st7" d="M462.8,434.6c0-4.2,0.1-8.9-1.1-13c-1.7-4.1-3.7-7.9-8.1-9.7c2.7-1.6,5.3-2.9,7-5.8c2.6-3.9,1.6-10,1.8-14.5
		c0.3-5.3-2.4-11.1-7.2-13.6c-2.9-1.5-6-1.3-9.2-1.3c-9.3,0.1-18.5-0.1-27.8-0.1c-4.3-0.3-8.6-0.4-13-0.3c-0.2,24-0.1,48,0,72
		c4.7,0,9.4,0,14.2,0c0.2-9.5,0-19.1,0.1-28.6c6.4,0,12.9,0,19.3,0c2.5,0.1,5,0,7,1.8c2,2,2.2,5.2,2.2,7.9c0,6.3,0,12.6,0,18.8
		c4.8,0.4,9.7,0.1,14.5,0.2C463,443.6,462.7,439.1,462.8,434.6z M447.5,400.6c-0.4,2.5-2.7,4.1-5.1,4.1c-7.6,0.1-15.1,0.1-22.7-0.2
		c-0.3-4.4-0.2-8.9-0.1-13.3c6.7-0.2,13.5,0,20.2-0.1c2.8-0.2,5.4,1.2,7.1,3.3C448,396.1,447.8,398.7,447.5,400.6z"/>
	<path class="st27" d="M530.1,390.7c0.1-4.5-1.5-8.9-5.1-11.8c-2.9-2.3-6.4-2.6-10-2.7c-13.1,0-26.3,0-39.4,0
		c-1.1-0.1-2.1,0.2-2.9,0.8c0.1,23.1,0,46.2,0,69.3c-0.1,2,1.4,2,2.9,2c13.4-0.1,26.9,0,40.3,0c4.8-0.1,9.8-2.5,12.4-6.6
		c1.5-2.4,1.8-5.1,1.8-7.9C530.1,419.3,530.1,405,530.1,390.7z M509.7,433.1c-7.3,0.2-14.6-0.1-22,0.1c-0.3-13.8-0.1-27.6-0.1-41.4
		c6.9-0.7,14.2-0.3,21.1-0.2c3.6-0.1,6.4,2.7,6.5,6.2c0,9.9,0,19.8,0,29.6C515.5,430.7,512.7,432.8,509.7,433.1z"/>
	<path class="st27" d="M599,389.8c0-3.4-0.9-6.6-3.3-9c-3.4-3.5-8.8-4.5-13.5-4.6c-8.7,0-17.3,0-26,0c-5.1-0.1-10.3,2.5-12.9,7
		c-1.6,2.9-1.8,6-1.8,9.3c0.1,18.6-0.1,37.2,0.1,55.7c5-0.2,10.1,0.4,15.1-0.3c0-4.7,0-9.4,0-14.1c8.9,0,17.8,0,26.7,0
		c0,4.7,0,9.4,0,14.1c5.1,0.6,10.4,0.3,15.6,0.1C599,428.6,599,409.2,599,389.8z M557,419c-0.1-6.2,0-12.3-0.1-18.5
		c0.1-2.4-0.1-5.4,2-7.2c2-1.9,5.5-1.9,8.1-2c3.8,0.1,7.8-0.3,11.5,0.4c2.5,0.4,4.7,2.5,4.9,5.1c0.2,7.3-0.1,14.6,0.2,21.9
		C574.7,419.3,565.8,418.9,557,419z"/>
	<path class="st27" d="M662.4,379.4c-2.6-2.5-6-3.3-9.5-3.4c-9.3,0-18.5,0-27.8,0c-4.5,0-9.6,1.3-13,4.4c-2.6,2.5-3.5,5.8-3.6,9.4
		c0,14.3,0,28.7,0,43c-0.1,4.5,1.6,9.4,5,12.5c2.8,2.5,6.2,3,9.8,3c7.5,0,14.9,0,22.4,0c4.9,0,10.7,0.5,15.2-2.1
		c4.8-3.3,6-8.8,6.1-14.3c0-12.8,0-25.7,0-38.5C667,388.5,666.1,382.8,662.4,379.4z M650.9,429.8c-0.7,1.7-2.2,3.1-4.2,3.1
		c-5.1,0.1-10.2,0-15.3,0.1c-1.9-0.1-3.9,0.3-5.4-1.1c-2-1.7-2.4-4.7-2.4-7.2c0-6.6,0.1-13.2-0.1-19.7c-0.3-3.7-0.5-7.9,1-11.4
		c1.6-2.6,5-3.1,7.8-3.2c3.9,0,7.8-0.1,11.7,0.1c2.7,0.2,5.2,0.9,6.8,3.2c1.2,1.9,1.3,4.6,1.4,6.8c0,6.6,0,13.1,0,19.7
		C652.2,423.4,652.1,426.9,650.9,429.8z"/>
	
		<linearGradient id="SVGID_00000039125217666174515880000000825305086985343123_" gradientUnits="userSpaceOnUse" x1="110.7303" y1="264.945" x2="352.2086" y2="23.4667">
		<stop  offset="0" style="stop-color:#00E9BA"/>
		<stop  offset="1" style="stop-color:#F800FF"/>
	</linearGradient>
	<path style="fill:url(#SVGID_00000039125217666174515880000000825305086985343123_);" d="M375.7,234.2
		c-3.1,14.6-9.4,27.2-19.1,38.5c-13.8,16-33.9,25.8-54.9,27.6c-40.3,0-80.6,0-120.9,0c-9-0.1-17.2,0.6-26-1.8
		c-18.3-4.7-33.4-19.2-38.8-37.4c-2.3-7.1-2.5-14.4-2.4-21.8c0-72.9,0-145.7,0-218.6c0-3-0.1-6,0.2-9c0.7-5.8,5.7-10.8,11.5-11.5
		c5.5-0.9,11.2,1.8,14,6.6c2.3,3.8,1.8,7.8,1.9,12.1c0,73.8,0,147.5,0,221.3c0,4.3-0.2,8.4,1.1,12.6c3.3,11.5,14.1,19.9,26.1,20
		c42.7,0,85.4,0,128.1,0c18.3-0.3,35.7-10.3,45.2-26c7.4-12,10-26.9,6.7-40.7c-2.8-12.5-10.2-23.8-20.5-31.4
		c-9.3-7-20.7-10.8-32.3-10.8c-24.2,0-48.4,0-72.6,0c-3.7,0.1-7.3,0.2-10.7,1.9c-6.4,2.8-11,9.2-11.7,16.2
		c-0.9,7.4,2.7,14.9,8.9,18.9c3.5,2.3,7.6,3.4,11.7,3.4c18.8,0,37.6,0,56.4,0c2.6,0.1,5.5,0.1,7.9,1.1c5.8,2.4,9.5,8.9,8.2,15.1
		c-1.1,6.4-6.9,11.3-13.4,11.3c-19.7,0.1-39.5,0-59.2,0c-4.9,0-9.9-0.6-14.6-2.1c-13.4-4.1-24.7-14.3-30-27.3
		c-4.7-11.3-4.9-24.4-0.3-35.8c6.8-17.6,24.2-29.9,43.1-30.2c25.7-0.1,51.4,0,77.1-0.1c16-0.3,31.5-8,41.4-20.5
		c8.1-10.1,12.4-23.1,11.8-36c-0.5-13.6-6.3-26.8-16-36.3c-10-10.1-24-15.9-38.1-15.9c-25.1,0.1-50.2,0-75.3,0.1
		c-6.8,0.1-13.2,3.7-16.7,9.5c-4.3,6.6-4,15.7,0.6,22.1c3.7,5.3,9.7,8.5,16.1,8.6c20,0.1,40,0,60,0.1c5.4,0,10.5,3.3,12.6,8.3
		c2.2,4.9,1.1,10.7-2.4,14.7c-2.6,2.8-6.4,4.6-10.2,4.5c-17.9,0-35.8,0-53.8,0c-5.1,0-10,0.3-15.1-0.9c-13-2.5-24.7-10.6-31.5-21.9
		c-8.5-13.7-9.3-31.6-2.1-46c5.9-12.1,16.9-21.2,29.9-24.8c8.2-2.4,15.8-1.6,24.2-1.7c23.9,0.1,47.9-0.1,71.8,0.1
		c2.5,1.6,5.2,1.3,8,2c13.2,2.7,25.9,8.8,36.2,17.5c3.2,2.6,5.9,5.7,8.9,8.5c9.5,10.4,16.2,24.1,18.8,38c1.5,9.1,1.5,18.3,0.8,27.6
		c-3.1,21.3-14.7,41.1-32,53.9c-1.2,0.9-2.3,1.8-3.4,2.9c13.9,9.3,24.7,23,30.7,38.6c2.3,5.8,3.6,11.8,4.7,17.8
		C377.6,215.8,377.6,225.3,375.7,234.2z"/>
	
		<linearGradient id="SVGID_00000010299608655604646500000007812416166997014974_" gradientUnits="userSpaceOnUse" x1="375.5695" y1="150.1594" x2="485.4141" y2="150.1594">
		<stop  offset="0" style="stop-color:#00E9BA"/>
		<stop  offset="1" style="stop-color:#F800FF"/>
	</linearGradient>
	<path style="fill:url(#SVGID_00000010299608655604646500000007812416166997014974_);" d="M478.4,183.8c-7.4,17-20.6,31.3-36.8,40.2
		c-11.5,6.3-24.5,9.8-37.6,10.2c-9.4,0-18.8,0.1-28.2,0c1.9-9,1.9-18.4,0.8-27.4c8.9-0.1,17.7,0,26.6-0.1c16.7-0.4,32.9-8.7,43-22
		c6-7.8,10-17.2,11.3-26.9c2.1-14.8-2.1-30.4-11.3-42.2c-10.3-13.5-26.9-21.9-43.9-22c-8.6,0-17.1,0-25.7,0
		c0.7-9.2,0.7-18.4-0.8-27.6c9.2,0,18.3,0,27.4,0c25.6,0.4,50.1,13,65.4,33.4c9.4,12.4,15.3,27.5,16.6,43
		C486.3,156.6,484.1,170.9,478.4,183.8z"/>
	
		<linearGradient id="SVGID_00000112601264232139299380000001809543101981516173_" gradientUnits="userSpaceOnUse" x1="392.4568" y1="150.4575" x2="423.0723" y2="150.4575">
		<stop  offset="0" style="stop-color:#00E9BA"/>
		<stop  offset="1" style="stop-color:#F800FF"/>
	</linearGradient>
	<path style="fill:url(#SVGID_00000112601264232139299380000001809543101981516173_);" d="M422.6,154.2c-1.6,6.8-8.1,11.8-15.1,11.6
		c-7.2-0.1-13.6-5.5-14.8-12.6c-1.3-7.3,2.9-14.6,9.9-17.1c4.6-1.7,9.9-1,13.9,1.9C421.6,141.5,424.2,148.1,422.6,154.2z"/>
	
		<linearGradient id="SVGID_00000085968445810179148170000007085389201420305315_" gradientUnits="userSpaceOnUse" x1="392.4568" y1="150.4575" x2="423.0723" y2="150.4575">
		<stop  offset="0" style="stop-color:#00E9BA"/>
		<stop  offset="1" style="stop-color:#F800FF"/>
	</linearGradient>
	<path style="fill:url(#SVGID_00000085968445810179148170000007085389201420305315_);" d="M422.6,154.2c-1.6,6.8-8.1,11.8-15.1,11.6
		c-7.2-0.1-13.6-5.5-14.8-12.6c-1.3-7.3,2.9-14.6,9.9-17.1c4.6-1.7,9.9-1,13.9,1.9C421.6,141.5,424.2,148.1,422.6,154.2z"/>
	<path class="st7" d="M56.1,408.3c2.6-3.8,1.5-9.6,1.8-14c0.2-5.7-0.8-11.1-5.3-15c-3.4-2.8-7.2-2.8-11.4-3c-12.2,0-24.5,0-36.7,0
		c-1.4,0-2.9-0.1-4.2,0.4c-0.3,2.3-0.2,4.7-0.2,7c0.1,21.5,0,43,0.1,64.6c12.5,0.3,25,0,37.4,0.2c5.3-0.3,10.3,0,14.7-3.5
		c3.7-2.6,5.1-6.6,4.8-11.1c-0.4-6.5,1.1-12.2-1.8-17.6c-0.8-2-2.4-3.1-4-4.4C53.1,410.8,54.9,410.2,56.1,408.3z M41,430.8
		c-2.4,2.2-5.8,2.2-8.8,2.2c-5.7-0.1-11.4,0.1-17.1-0.1c-0.9-1.5-0.2-4.6-0.4-6.4c0-2.3-0.1-4.6,0.1-6.9c4.9-0.2,9.8,0,14.7-0.1
		c2.7,0.1,5.6-0.2,8.2,0.3C42.3,420.9,44.3,427.5,41,430.8z M41.5,401.8c-1.6,2-4.2,2.6-6.6,2.6c-6.7,0-13.4-0.1-20,0
		c-0.2-4.4-0.2-8.9,0-13.2c5.2-0.2,10.4,0,15.6-0.1c2.4,0,5-0.2,7.3,0.3C41.9,392.5,44.1,398.3,41.5,401.8z"/>
	<path class="st7" d="M125.8,432.8c0-3.6,0.1-7.7-1.1-11.1c-1.7-4.3-3.9-8.1-8.3-10c2.7-1.3,5.2-2.5,6.9-5.2c2-3,2.2-6.2,2.1-9.6
		c-0.1-4.6,0.6-8.6-1.6-12.9c-2-4.4-6.1-7.4-11.1-7.4c-10.5,0-20.9-0.1-31.4-0.2c-4.3-0.1-8.9-0.9-13.1,0c-0.3,19.3,0,38.7-0.1,58
		c0.1,4.4-0.2,8.8,0.1,13.2l0.5,0.4c4.5,0.3,9.1,0.1,13.6,0.1c0.3-9.5,0.1-19.1,0.2-28.6c6.4,0,12.9,0,19.3,0c2.5,0.1,4.9,0,6.9,1.8
		c1.9,1.7,2,4.5,2.2,6.9c0.1,6.6,0,13.2,0.1,19.8c4.8,0.3,9.7,0.1,14.5,0.1C125.9,443,125.8,437.9,125.8,432.8z M110.3,401.6
		c-1,2.3-3.2,3.1-5.6,3.1c-7.3,0-14.7,0.2-22-0.3c-0.1-4.4-0.2-8.8,0-13.2c5.5-0.2,11,0,16.5-0.1c3.2,0.1,6-0.5,8.8,1.5
		C111.4,394.5,111.3,398.4,110.3,401.6z"/>
	<path class="st7" d="M192.8,433.3c0,4.9,0.1,9.9,0,14.8c-18,0.1-36,0-54,0c-1.5,0-3,0-2.9-2c0-23.4-0.1-46.8,0-70.1
		c10.2-0.1,20.4,0.1,30.6,0c8.7,0.6,17.4,0.3,26.1,0.3c0.2,4.9,0.3,9.9,0,14.8c-13.9-0.1-27.7-0.1-41.6,0c0,4.4,0.1,8.8-0.1,13.2
		c9.4,0.6,18.9,0,28.4,0.3c0,4.9,0.2,9.8,0,14.6l-0.4,0.4c-9.3,0.2-18.6,0-27.9,0.1c0,4.4,0,8.9-0.1,13.3
		C164.9,433.5,178.8,433.1,192.8,433.3z"/>
	<path class="st7" d="M259.9,433.3c0,4.9,0.1,9.9-0.1,14.8c-18,0.2-35.9,0-53.9,0.1c-1.5,0-3.2,0-3-2c0-23.4,0-46.8,0-70.1
		c10.2-0.1,20.5,0.1,30.7,0c8.7,0.6,17.4,0.2,26.1,0.3c0.2,4.9,0.3,9.9,0,14.8c-13.9,0-27.7,0-41.6,0c0,4.5-0.2,9,0.1,13.5
		c9.3-0.1,18.7-0.1,28,0c0,5,0.1,10.1-0.1,15.1c-9.3,0-18.7,0-28,0c0,4.4,0,8.9-0.1,13.3C232,433.5,246,433.1,259.9,433.3z"/>
	<path class="st7" d="M327.6,391.6c-0.1-4.4-0.9-8.6-4.2-11.8c-3-3-6.8-3.5-10.9-3.6c-14.1,0-28.2,0-42.3,0c-0.1,24-0.1,48,0,71.9
		c14.1,0.2,28.2,0,42.3,0.1c5,0.1,10.6-2.3,13.2-6.7c2-3.3,1.8-6.8,1.9-10.5C327.6,417.8,327.7,404.7,327.6,391.6z M312.7,427.4
		c0.1,3.7-3.1,5.7-6.5,5.7c-7.1,0-14.2,0.1-21.3-0.1c0.1-13.8-0.1-27.6,0.1-41.3c6.2-0.2,12.4,0,18.5-0.1c1.8,0.1,3.9-0.1,5.6,0.5
		c2.4,1.3,3.6,3.9,3.5,6.5C312.7,408.3,312.8,417.9,312.7,427.4z"/>
	<path class="st7" d="M394.8,433.5c-0.2,4.7,0.2,9.5-0.2,14.2c-1,0.8-2.9,0.4-4.1,0.5c-16.1,0-32.2,0-48.4,0
		c-1.2-0.1-3.1,0.3-4.1-0.5c-0.3-2.3-0.1-4.6-0.2-6.9c0-21.5,0-43.1,0-64.6c6.2-0.3,12.4,0,18.6-0.1c6,0.1,11.9-0.2,17.9,0.3
		c6.8,0.2,13.6-0.1,20.3,0.1c0.2,4.9,0.1,9.8,0,14.6c-13.9,0.2-27.8-0.1-41.6,0.1c0,4.5,0,8.9,0,13.4c9.3,0,18.7-0.1,28,0
		c0.1,5,0,10,0.1,15c-9.4,0.3-18.7-0.1-28.1,0.2c0.1,4.4,0,8.9,0.1,13.3c11,0,21.9,0,32.9,0C388.9,433.3,391.9,433.2,394.8,433.5z"
		/>
	<path class="st7" d="M462.8,434.6c0-4.2,0.1-8.9-1.1-13c-1.7-4.1-3.7-7.9-8.1-9.7c2.7-1.6,5.3-2.9,7-5.8c2.6-3.9,1.6-10,1.8-14.5
		c0.3-5.3-2.4-11.1-7.2-13.6c-2.9-1.5-6-1.3-9.2-1.3c-9.3,0.1-18.5-0.1-27.8-0.1c-4.3-0.3-8.6-0.4-13-0.3c-0.2,24-0.1,48,0,72
		c4.7,0,9.4,0,14.2,0c0.2-9.5,0-19.1,0.1-28.6c6.4,0,12.9,0,19.3,0c2.5,0.1,5,0,7,1.8c2,2,2.2,5.2,2.2,7.9c0,6.3,0,12.6,0,18.8
		c4.8,0.4,9.7,0.1,14.5,0.2C463,443.6,462.7,439.1,462.8,434.6z M447.5,400.6c-0.4,2.5-2.7,4.1-5.1,4.1c-7.6,0.1-15.1,0.1-22.7-0.2
		c-0.3-4.4-0.2-8.9-0.1-13.3c6.7-0.2,13.5,0,20.2-0.1c2.8-0.2,5.4,1.2,7.1,3.3C448,396.1,447.8,398.7,447.5,400.6z"/>
	<path class="st27" d="M530.1,390.7c0.1-4.5-1.5-8.9-5.1-11.8c-2.9-2.3-6.4-2.6-10-2.7c-13.1,0-26.3,0-39.4,0
		c-1.1-0.1-2.1,0.2-2.9,0.8c0.1,23.1,0,46.2,0,69.3c-0.1,2,1.4,2,2.9,2c13.4-0.1,26.9,0,40.3,0c4.8-0.1,9.8-2.5,12.4-6.6
		c1.5-2.4,1.8-5.1,1.8-7.9C530.1,419.3,530.1,405,530.1,390.7z M509.7,433.1c-7.3,0.2-14.6-0.1-22,0.1c-0.3-13.8-0.1-27.6-0.1-41.4
		c6.9-0.7,14.2-0.3,21.1-0.2c3.6-0.1,6.4,2.7,6.5,6.2c0,9.9,0,19.8,0,29.6C515.5,430.7,512.7,432.8,509.7,433.1z"/>
	<path class="st27" d="M599,389.8c0-3.4-0.9-6.6-3.3-9c-3.4-3.5-8.8-4.5-13.5-4.6c-8.7,0-17.3,0-26,0c-5.1-0.1-10.3,2.5-12.9,7
		c-1.6,2.9-1.8,6-1.8,9.3c0.1,18.6-0.1,37.2,0.1,55.7c5-0.2,10.1,0.4,15.1-0.3c0-4.7,0-9.4,0-14.1c8.9,0,17.8,0,26.7,0
		c0,4.7,0,9.4,0,14.1c5.1,0.6,10.4,0.3,15.6,0.1C599,428.6,599,409.2,599,389.8z M557,419c-0.1-6.2,0-12.3-0.1-18.5
		c0.1-2.4-0.1-5.4,2-7.2c2-1.9,5.5-1.9,8.1-2c3.8,0.1,7.8-0.3,11.5,0.4c2.5,0.4,4.7,2.5,4.9,5.1c0.2,7.3-0.1,14.6,0.2,21.9
		C574.7,419.3,565.8,418.9,557,419z"/>
	<path class="st27" d="M662.4,379.4c-2.6-2.5-6-3.3-9.5-3.4c-9.3,0-18.5,0-27.8,0c-4.5,0-9.6,1.3-13,4.4c-2.6,2.5-3.5,5.8-3.6,9.4
		c0,14.3,0,28.7,0,43c-0.1,4.5,1.6,9.4,5,12.5c2.8,2.5,6.2,3,9.8,3c7.5,0,14.9,0,22.4,0c4.9,0,10.7,0.5,15.2-2.1
		c4.8-3.3,6-8.8,6.1-14.3c0-12.8,0-25.7,0-38.5C667,388.5,666.1,382.8,662.4,379.4z M650.9,429.8c-0.7,1.7-2.2,3.1-4.2,3.1
		c-5.1,0.1-10.2,0-15.3,0.1c-1.9-0.1-3.9,0.3-5.4-1.1c-2-1.7-2.4-4.7-2.4-7.2c0-6.6,0.1-13.2-0.1-19.7c-0.3-3.7-0.5-7.9,1-11.4
		c1.6-2.6,5-3.1,7.8-3.2c3.9,0,7.8-0.1,11.7,0.1c2.7,0.2,5.2,0.9,6.8,3.2c1.2,1.9,1.3,4.6,1.4,6.8c0,6.6,0,13.1,0,19.7
		C652.2,423.4,652.1,426.9,650.9,429.8z"/>
</g>
</svg>
