<?xml version="1.0" encoding="utf-8"?>
<!-- Generator: Adobe Illustrator 26.0.3, SVG Export Plug-In . SVG Version: 6.00 Build 0)  -->
<svg version="1.1" id="Layer_1" xmlns="http://www.w3.org/2000/svg" xmlns:xlink="http://www.w3.org/1999/xlink" x="0px" y="0px"
	 viewBox="0 0 2330.5 59" style="enable-background:new 0 0 2330.5 59;" xml:space="preserve">
<style type="text/css">
	.st0{clip-path:url(#SVGID_00000061440481921787748740000006646997996800492219_);}
	.st1{fill:#FDD325;}
	.st2{clip-path:url(#SVGID_00000054960691644577860380000003578078343444987581_);}
	.st3{clip-path:url(#SVGID_00000167394874702152920580000001603941064882409655_);}
</style>
<g>
	<defs>
		<rect id="SVGID_00000173880858358512260380000004513515593448375478_" width="1526.6" height="59"/>
	</defs>
	<use xlink:href="#SVGID_00000173880858358512260380000004513515593448375478_"  style="overflow:visible;fill:#FDD325;"/>
	<clipPath id="SVGID_00000086662578105944082280000012601194818281180823_">
		<use xlink:href="#SVGID_00000173880858358512260380000004513515593448375478_"  style="overflow:visible;"/>
	</clipPath>
	<g style="clip-path:url(#SVGID_00000086662578105944082280000012601194818281180823_);">
		<g>
			<polygon points="1468,71 1481,83.8 1535.8,29.6 1522.9,16.8 			"/>
		</g>
		<g>
			<polygon points="1482.2,-24.8 1469.3,-12 1523.5,41.6 1536.5,28.8 			"/>
		</g>
	</g>
	<g style="clip-path:url(#SVGID_00000086662578105944082280000012601194818281180823_);">
		<g>
			<polygon points="1416.7,71 1429.6,83.8 1484.5,29.6 1471.5,16.8 			"/>
		</g>
		<g>
			<polygon points="1430.9,-24.8 1417.9,-12 1472.1,41.6 1485.1,28.8 			"/>
		</g>
	</g>
	<g style="clip-path:url(#SVGID_00000086662578105944082280000012601194818281180823_);">
		<g>
			<polygon points="1365.3,71 1378.2,83.8 1433.1,29.6 1420.1,16.8 			"/>
		</g>
		<g>
			<polygon points="1379.5,-24.8 1366.5,-12 1420.8,41.6 1433.7,28.8 			"/>
		</g>
	</g>
	<g style="clip-path:url(#SVGID_00000086662578105944082280000012601194818281180823_);">
		<g>
			<polygon points="1313.9,71 1326.8,83.8 1381.7,29.6 1368.7,16.8 			"/>
		</g>
		<g>
			<polygon points="1328.1,-24.8 1315.1,-12 1369.4,41.6 1382.3,28.8 			"/>
		</g>
	</g>
	<g style="clip-path:url(#SVGID_00000086662578105944082280000012601194818281180823_);">
		<g>
			<polygon points="1262.5,71 1275.4,83.8 1330.3,29.6 1317.3,16.8 			"/>
		</g>
		<g>
			<polygon points="1276.7,-24.8 1263.7,-12 1318,41.6 1330.9,28.8 			"/>
		</g>
	</g>
	<g style="clip-path:url(#SVGID_00000086662578105944082280000012601194818281180823_);">
		<g>
			<polygon points="1211.1,71 1224.1,83.8 1278.9,29.6 1266,16.8 			"/>
		</g>
		<g>
			<polygon points="1225.3,-24.8 1212.3,-12 1266.6,41.6 1279.5,28.8 			"/>
		</g>
	</g>
	<g style="clip-path:url(#SVGID_00000086662578105944082280000012601194818281180823_);">
		<g>
			<polygon points="1159.7,71 1172.7,83.8 1227.5,29.6 1214.6,16.8 			"/>
		</g>
		<g>
			<polygon points="1173.9,-24.8 1161,-12 1215.2,41.6 1228.1,28.8 			"/>
		</g>
	</g>
	<g style="clip-path:url(#SVGID_00000086662578105944082280000012601194818281180823_);">
		<g>
			<polygon points="1108.3,71 1121.3,83.8 1176.1,29.6 1163.2,16.8 			"/>
		</g>
		<g>
			<polygon points="1122.5,-24.8 1109.6,-12 1163.8,41.6 1176.8,28.8 			"/>
		</g>
	</g>
	<g style="clip-path:url(#SVGID_00000086662578105944082280000012601194818281180823_);">
		<g>
			<polygon points="1056.9,71 1069.9,83.8 1124.7,29.6 1111.8,16.8 			"/>
		</g>
		<g>
			<polygon points="1071.1,-24.8 1058.2,-12 1112.4,41.6 1125.4,28.8 			"/>
		</g>
	</g>
	<g style="clip-path:url(#SVGID_00000086662578105944082280000012601194818281180823_);">
		<g>
			<polygon points="1005.5,71 1018.5,83.8 1073.3,29.6 1060.4,16.8 			"/>
		</g>
		<g>
			<polygon points="1019.7,-24.8 1006.8,-12 1061,41.6 1074,28.8 			"/>
		</g>
	</g>
	<g style="clip-path:url(#SVGID_00000086662578105944082280000012601194818281180823_);">
		<g>
			<polygon points="954.2,71 967.1,83.8 1022,29.6 1009,16.8 			"/>
		</g>
		<g>
			<polygon points="968.4,-24.8 955.4,-12 1009.6,41.6 1022.6,28.8 			"/>
		</g>
	</g>
	<g style="clip-path:url(#SVGID_00000086662578105944082280000012601194818281180823_);">
		<g>
			<polygon points="902.8,71 915.7,83.8 970.6,29.6 957.6,16.8 			"/>
		</g>
		<g>
			<polygon points="917,-24.8 904,-12 958.3,41.6 971.2,28.8 			"/>
		</g>
	</g>
	<g style="clip-path:url(#SVGID_00000086662578105944082280000012601194818281180823_);">
		<g>
			<polygon points="851.4,71 864.3,83.8 919.2,29.6 906.2,16.8 			"/>
		</g>
		<g>
			<polygon points="865.6,-24.8 852.6,-12 906.9,41.6 919.8,28.8 			"/>
		</g>
	</g>
	<g style="clip-path:url(#SVGID_00000086662578105944082280000012601194818281180823_);">
		<g>
			<polygon points="800,71 812.9,83.8 867.8,29.6 854.8,16.8 			"/>
		</g>
		<g>
			<polygon points="814.2,-24.8 801.2,-12 855.5,41.6 868.4,28.8 			"/>
		</g>
	</g>
	<g style="clip-path:url(#SVGID_00000086662578105944082280000012601194818281180823_);">
		<g>
			<polygon points="748.6,71 761.6,83.8 816.4,29.6 803.5,16.8 			"/>
		</g>
		<g>
			<polygon points="762.8,-24.8 749.9,-12 804.1,41.6 817,28.8 			"/>
		</g>
	</g>
	<g style="clip-path:url(#SVGID_00000086662578105944082280000012601194818281180823_);">
		<g>
			<polygon points="697.2,71 710.2,83.8 765,29.6 752.1,16.8 			"/>
		</g>
		<g>
			<polygon points="711.4,-24.8 698.5,-12 752.7,41.6 765.6,28.8 			"/>
		</g>
	</g>
	<g style="clip-path:url(#SVGID_00000086662578105944082280000012601194818281180823_);">
		<g>
			<polygon points="645.8,71 658.8,83.8 713.6,29.6 700.7,16.8 			"/>
		</g>
		<g>
			<polygon points="660,-24.8 647.1,-12 701.3,41.6 714.3,28.8 			"/>
		</g>
	</g>
	<g style="clip-path:url(#SVGID_00000086662578105944082280000012601194818281180823_);">
		<g>
			<polygon points="594.4,71 607.4,83.8 662.2,29.6 649.3,16.8 			"/>
		</g>
		<g>
			<polygon points="608.6,-24.8 595.7,-12 649.9,41.6 662.9,28.8 			"/>
		</g>
	</g>
	<g style="clip-path:url(#SVGID_00000086662578105944082280000012601194818281180823_);">
		<g>
			<polygon points="543.1,71 556,83.8 610.9,29.6 597.9,16.8 			"/>
		</g>
		<g>
			<polygon points="557.2,-24.8 544.3,-12 598.5,41.6 611.5,28.8 			"/>
		</g>
	</g>
	<g style="clip-path:url(#SVGID_00000086662578105944082280000012601194818281180823_);">
		<g>
			<polygon points="491.7,71 504.6,83.8 559.5,29.6 546.5,16.8 			"/>
		</g>
		<g>
			<polygon points="505.9,-24.8 492.9,-12 547.1,41.6 560.1,28.8 			"/>
		</g>
	</g>
	<g style="clip-path:url(#SVGID_00000086662578105944082280000012601194818281180823_);">
		<g>
			<polygon points="440.3,71 453.2,83.8 508.1,29.6 495.1,16.8 			"/>
		</g>
		<g>
			<polygon points="454.5,-24.8 441.5,-12 495.8,41.6 508.7,28.8 			"/>
		</g>
	</g>
	<g style="clip-path:url(#SVGID_00000086662578105944082280000012601194818281180823_);">
		<g>
			<polygon points="388.9,71 401.8,83.8 456.7,29.6 443.7,16.8 			"/>
		</g>
		<g>
			<polygon points="403.1,-24.8 390.1,-12 444.4,41.6 457.3,28.8 			"/>
		</g>
	</g>
	<g style="clip-path:url(#SVGID_00000086662578105944082280000012601194818281180823_);">
		<g>
			<polygon points="337.5,71 350.4,83.8 405.3,29.6 392.3,16.8 			"/>
		</g>
		<g>
			<polygon points="351.7,-24.8 338.7,-12 393,41.6 405.9,28.8 			"/>
		</g>
	</g>
	<g style="clip-path:url(#SVGID_00000086662578105944082280000012601194818281180823_);">
		<g>
			<polygon points="286.1,71 299.1,83.8 353.9,29.6 341,16.8 			"/>
		</g>
		<g>
			<polygon points="300.3,-24.8 287.4,-12 341.6,41.6 354.5,28.8 			"/>
		</g>
	</g>
	<g style="clip-path:url(#SVGID_00000086662578105944082280000012601194818281180823_);">
		<g>
			<polygon points="234.7,71 247.7,83.8 302.5,29.6 289.6,16.8 			"/>
		</g>
		<g>
			<polygon points="248.9,-24.8 236,-12 290.2,41.6 303.2,28.8 			"/>
		</g>
	</g>
	<g style="clip-path:url(#SVGID_00000086662578105944082280000012601194818281180823_);">
		<g>
			<polygon points="183.3,71 196.3,83.8 251.1,29.6 238.2,16.8 			"/>
		</g>
		<g>
			<polygon points="197.5,-24.8 184.6,-12 238.8,41.6 251.8,28.8 			"/>
		</g>
	</g>
	<g style="clip-path:url(#SVGID_00000086662578105944082280000012601194818281180823_);">
		<g>
			<polygon points="131.9,71 144.9,83.8 199.7,29.6 186.8,16.8 			"/>
		</g>
		<g>
			<polygon points="146.1,-24.8 133.2,-12 187.4,41.6 200.4,28.8 			"/>
		</g>
	</g>
	<g style="clip-path:url(#SVGID_00000086662578105944082280000012601194818281180823_);">
		<g>
			<polygon points="80.6,71 93.5,83.8 148.4,29.6 135.4,16.8 			"/>
		</g>
		<g>
			<polygon points="94.7,-24.8 81.8,-12 136,41.6 149,28.8 			"/>
		</g>
	</g>
	<g style="clip-path:url(#SVGID_00000086662578105944082280000012601194818281180823_);">
		<g>
			<polygon points="29.2,71 42.1,83.8 97,29.6 84,16.8 			"/>
		</g>
		<g>
			<polygon points="43.4,-24.8 30.4,-12 84.6,41.6 97.6,28.8 			"/>
		</g>
	</g>
	<g style="clip-path:url(#SVGID_00000086662578105944082280000012601194818281180823_);">
		<g>
			<polygon points="-22.2,71 -9.3,83.8 45.6,29.6 32.6,16.8 			"/>
		</g>
		<g>
			<polygon points="-8,-24.8 -21,-12 33.3,41.6 46.2,28.8 			"/>
		</g>
	</g>
</g>
<g>
	<defs>
		<rect id="SVGID_00000022533205389036620560000012481350940889524890_" x="1526.6" width="1526.6" height="59"/>
	</defs>
	<use xlink:href="#SVGID_00000022533205389036620560000012481350940889524890_"  style="overflow:visible;fill:#FDD325;"/>
	<clipPath id="SVGID_00000083790079220218358360000012116215223612261253_">
		<use xlink:href="#SVGID_00000022533205389036620560000012481350940889524890_"  style="overflow:visible;"/>
	</clipPath>
	<g style="clip-path:url(#SVGID_00000083790079220218358360000012116215223612261253_);">
		<g>
			<polygon points="2326.6,71 2339.5,83.8 2394.4,29.6 2381.4,16.8 			"/>
		</g>
		<g>
			<polygon points="2340.8,-24.8 2327.8,-12 2382.1,41.6 2395,28.8 			"/>
		</g>
	</g>
	<g style="clip-path:url(#SVGID_00000083790079220218358360000012116215223612261253_);">
		<g>
			<polygon points="2275.2,71 2288.1,83.8 2343,29.6 2330,16.8 			"/>
		</g>
		<g>
			<polygon points="2289.4,-24.8 2276.4,-12 2330.7,41.6 2343.6,28.8 			"/>
		</g>
	</g>
	<g style="clip-path:url(#SVGID_00000083790079220218358360000012116215223612261253_);">
		<g>
			<polygon points="2223.8,71 2236.7,83.8 2291.6,29.6 2278.7,16.8 			"/>
		</g>
		<g>
			<polygon points="2238,-24.8 2225,-12 2279.3,41.6 2292.2,28.8 			"/>
		</g>
	</g>
	<g style="clip-path:url(#SVGID_00000083790079220218358360000012116215223612261253_);">
		<g>
			<polygon points="2172.4,71 2185.4,83.8 2240.2,29.6 2227.3,16.8 			"/>
		</g>
		<g>
			<polygon points="2186.6,-24.8 2173.7,-12 2227.9,41.6 2240.8,28.8 			"/>
		</g>
	</g>
	<g style="clip-path:url(#SVGID_00000083790079220218358360000012116215223612261253_);">
		<g>
			<polygon points="2121,71 2134,83.8 2188.8,29.6 2175.9,16.8 			"/>
		</g>
		<g>
			<polygon points="2135.2,-24.8 2122.3,-12 2176.5,41.6 2189.5,28.8 			"/>
		</g>
	</g>
	<g style="clip-path:url(#SVGID_00000083790079220218358360000012116215223612261253_);">
		<g>
			<polygon points="2069.6,71 2082.6,83.8 2137.4,29.6 2124.5,16.8 			"/>
		</g>
		<g>
			<polygon points="2083.8,-24.8 2070.9,-12 2125.1,41.6 2138.1,28.8 			"/>
		</g>
	</g>
	<g style="clip-path:url(#SVGID_00000083790079220218358360000012116215223612261253_);">
		<g>
			<polygon points="2018.2,71 2031.2,83.8 2086,29.6 2073.1,16.8 			"/>
		</g>
		<g>
			<polygon points="2032.4,-24.8 2019.5,-12 2073.7,41.6 2086.7,28.8 			"/>
		</g>
	</g>
	<g style="clip-path:url(#SVGID_00000083790079220218358360000012116215223612261253_);">
		<g>
			<polygon points="1966.9,71 1979.8,83.8 2034.7,29.6 2021.7,16.8 			"/>
		</g>
		<g>
			<polygon points="1981.1,-24.8 1968.1,-12 2022.3,41.6 2035.3,28.8 			"/>
		</g>
	</g>
	<g style="clip-path:url(#SVGID_00000083790079220218358360000012116215223612261253_);">
		<g>
			<polygon points="1915.5,71 1928.4,83.8 1983.3,29.6 1970.3,16.8 			"/>
		</g>
		<g>
			<polygon points="1929.7,-24.8 1916.7,-12 1971,41.6 1983.9,28.8 			"/>
		</g>
	</g>
	<g style="clip-path:url(#SVGID_00000083790079220218358360000012116215223612261253_);">
		<g>
			<polygon points="1864.1,71 1877,83.8 1931.9,29.6 1918.9,16.8 			"/>
		</g>
		<g>
			<polygon points="1878.3,-24.8 1865.3,-12 1919.6,41.6 1932.5,28.8 			"/>
		</g>
	</g>
	<g style="clip-path:url(#SVGID_00000083790079220218358360000012116215223612261253_);">
		<g>
			<polygon points="1812.7,71 1825.6,83.8 1880.5,29.6 1867.5,16.8 			"/>
		</g>
		<g>
			<polygon points="1826.9,-24.8 1813.9,-12 1868.2,41.6 1881.1,28.8 			"/>
		</g>
	</g>
	<g style="clip-path:url(#SVGID_00000083790079220218358360000012116215223612261253_);">
		<g>
			<polygon points="1761.3,71 1774.3,83.8 1829.1,29.6 1816.2,16.8 			"/>
		</g>
		<g>
			<polygon points="1775.5,-24.8 1762.5,-12 1816.8,41.6 1829.7,28.8 			"/>
		</g>
	</g>
	<g style="clip-path:url(#SVGID_00000083790079220218358360000012116215223612261253_);">
		<g>
			<polygon points="1709.9,71 1722.9,83.8 1777.7,29.6 1764.8,16.8 			"/>
		</g>
		<g>
			<polygon points="1724.1,-24.8 1711.2,-12 1765.4,41.6 1778.3,28.8 			"/>
		</g>
	</g>
	<g style="clip-path:url(#SVGID_00000083790079220218358360000012116215223612261253_);">
		<g>
			<polygon points="1658.5,71 1671.5,83.8 1726.3,29.6 1713.4,16.8 			"/>
		</g>
		<g>
			<polygon points="1672.7,-24.8 1659.8,-12 1714,41.6 1727,28.8 			"/>
		</g>
	</g>
	<g style="clip-path:url(#SVGID_00000083790079220218358360000012116215223612261253_);">
		<g>
			<polygon points="1607.1,71 1620.1,83.8 1674.9,29.6 1662,16.8 			"/>
		</g>
		<g>
			<polygon points="1621.3,-24.8 1608.4,-12 1662.6,41.6 1675.6,28.8 			"/>
		</g>
	</g>
	<g style="clip-path:url(#SVGID_00000083790079220218358360000012116215223612261253_);">
		<g>
			<polygon points="1555.7,71 1568.7,83.8 1623.5,29.6 1610.6,16.8 			"/>
		</g>
		<g>
			<polygon points="1569.9,-24.8 1557,-12 1611.2,41.6 1624.2,28.8 			"/>
		</g>
	</g>
	<g style="clip-path:url(#SVGID_00000083790079220218358360000012116215223612261253_);">
		<g>
			<polygon points="1504.4,71 1517.3,83.8 1572.2,29.6 1559.2,16.8 			"/>
		</g>
		<g>
			<polygon points="1518.6,-24.8 1505.6,-12 1559.8,41.6 1572.8,28.8 			"/>
		</g>
	</g>
</g>
<g>
	<rect y="8.8" class="st1" width="2330.5" height="40.7"/>
</g>
<g>
	<g>
		<path d="M55.4,30.6c0-2.1,0.4-4,1.1-5.8c0.7-1.8,1.7-3.3,2.9-4.6c1.3-1.3,2.7-2.3,4.4-3.1c1.7-0.7,3.5-1.1,5.5-1.1
			c2,0,3.8,0.4,5.5,1.1c1.7,0.7,3.2,1.8,4.4,3.1c1.2,1.3,2.2,2.8,2.9,4.6c0.7,1.8,1.1,3.7,1.1,5.8c0,1.8-0.2,3.4-0.7,5
			c-0.5,1.5-1.2,2.9-2.1,4.2l4.1,5.6h-6.4l-1.6-2.2c-2.1,1.3-4.5,2-7.2,2c-2,0-3.8-0.4-5.5-1.1c-1.7-0.7-3.2-1.8-4.4-3.1
			c-1.3-1.3-2.2-2.8-2.9-4.6C55.7,34.6,55.4,32.7,55.4,30.6z M69.3,40.2c1.5,0,2.9-0.4,4.1-1.1l-4.6-6.4h6.4l1.7,2.4
			c0.6-1.4,0.9-2.9,0.9-4.5c0-1.4-0.2-2.6-0.6-3.8s-1-2.2-1.8-3.1c-0.8-0.9-1.7-1.5-2.7-2S70.6,21,69.3,21s-2.4,0.2-3.4,0.7
			s-2,1.2-2.7,2c-0.8,0.9-1.4,1.9-1.8,3.1s-0.6,2.4-0.6,3.8s0.2,2.6,0.6,3.8c0.4,1.2,1,2.2,1.8,3.1c0.8,0.9,1.7,1.5,2.7,2
			S68.1,40.2,69.3,40.2z"/>
		<path d="M91.9,16.6v16.7c0,1.1,0.2,2.1,0.5,2.9c0.3,0.9,0.8,1.6,1.4,2.2c0.6,0.6,1.3,1,2,1.4c0.8,0.3,1.6,0.5,2.5,0.5
			s1.7-0.2,2.5-0.5c0.8-0.3,1.4-0.8,2-1.4c0.6-0.6,1-1.3,1.4-2.2c0.3-0.9,0.5-1.8,0.5-2.9V16.6h5.4v16.7c0,1.7-0.3,3.3-0.9,4.8
			c-0.6,1.5-1.4,2.7-2.5,3.8c-1.1,1.1-2.3,1.9-3.7,2.5c-1.4,0.6-3,0.9-4.7,0.9c-1.7,0-3.2-0.3-4.7-0.9c-1.4-0.6-2.7-1.4-3.7-2.5
			c-1-1.1-1.9-2.3-2.5-3.8c-0.6-1.5-0.9-3-0.9-4.8V16.6H91.9z"/>
		<path d="M120.9,16.6h5.3l10.4,28h-5.4l-3.1-8.4h-8.8l-3,8.4h-5.4L120.9,16.6z M120.9,31.2h5.3l-2.6-7.3L120.9,31.2z"/>
		<path d="M139.3,16.6h5.4v23H160v5h-20.8V16.6z"/>
		<path d="M162.2,16.6h5.4v28h-5.4V16.6z"/>
		<path d="M170,16.6h23.4v5h-9v23H179v-23h-9V16.6z"/>
		<path d="M194.4,16.6h6.4l6.8,10.6l6.8-10.6h6.1l-10.2,15.7v12.3h-5.4V32.3L194.4,16.6z"/>
		<path d="M228.5,30.6c0-2.1,0.4-4,1.1-5.8c0.7-1.8,1.7-3.3,2.9-4.6c1.2-1.3,2.7-2.3,4.4-3.1c1.7-0.7,3.6-1.1,5.6-1.1
			c1.7,0,3.3,0.3,4.8,0.9c1.5,0.6,2.8,1.4,4,2.4c1.2,1,2.2,2.2,3.1,3.7c0.9,1.4,1.5,3,1.9,4.7l-5.5,0c-0.7-2-1.7-3.6-3.2-4.8
			c-1.5-1.2-3.2-1.8-5.1-1.8c-1.2,0-2.4,0.2-3.4,0.7c-1.1,0.5-2,1.2-2.7,2s-1.4,1.9-1.8,3.1c-0.4,1.2-0.7,2.5-0.7,3.8
			s0.2,2.6,0.7,3.8c0.4,1.2,1,2.2,1.8,3c0.8,0.9,1.7,1.5,2.7,2s2.2,0.7,3.4,0.7c1,0,1.9-0.2,2.7-0.5c0.9-0.3,1.7-0.8,2.4-1.3
			c0.7-0.6,1.4-1.3,1.9-2.1c0.6-0.8,1-1.7,1.3-2.7h5.5c-0.4,1.7-1.1,3.3-2,4.7c-0.9,1.4-1.9,2.6-3.1,3.7c-1.2,1-2.5,1.8-4,2.4
			c-1.5,0.6-3.1,0.8-4.7,0.8c-2,0-3.9-0.4-5.6-1.1c-1.7-0.7-3.2-1.8-4.4-3.1c-1.2-1.3-2.2-2.8-2.9-4.6
			C228.9,34.6,228.5,32.7,228.5,30.6z"/>
		<path d="M257.6,30.6c0-2.1,0.4-4,1.1-5.8s1.7-3.3,3-4.6c1.3-1.3,2.7-2.3,4.5-3.1c1.7-0.7,3.6-1.1,5.6-1.1c2,0,3.9,0.4,5.6,1.1
			c1.7,0.7,3.2,1.8,4.5,3.1c1.3,1.3,2.3,2.8,3,4.6c0.7,1.8,1.1,3.7,1.1,5.8s-0.4,4-1.1,5.8c-0.7,1.8-1.7,3.3-3,4.6
			c-1.3,1.3-2.8,2.3-4.5,3.1c-1.7,0.7-3.6,1.1-5.6,1.1c-2,0-3.9-0.4-5.6-1.1c-1.7-0.7-3.2-1.8-4.5-3.1c-1.3-1.3-2.2-2.8-3-4.6
			C258,34.6,257.6,32.7,257.6,30.6z M271.7,40.2c1.3,0,2.4-0.2,3.5-0.7c1.1-0.5,2-1.2,2.8-2c0.8-0.9,1.4-1.9,1.8-3.1
			c0.4-1.2,0.7-2.4,0.7-3.8s-0.2-2.6-0.7-3.8c-0.4-1.2-1-2.2-1.8-3.1c-0.8-0.9-1.7-1.5-2.8-2c-1.1-0.5-2.2-0.7-3.5-0.7
			c-1.2,0-2.4,0.2-3.5,0.7c-1.1,0.5-2,1.2-2.8,2s-1.4,1.9-1.8,3.1s-0.7,2.5-0.7,3.8s0.2,2.6,0.7,3.8c0.4,1.2,1.1,2.2,1.8,3
			c0.8,0.9,1.7,1.5,2.8,2C269.3,40,270.5,40.2,271.7,40.2z"/>
		<path d="M288.1,44.6v-28h6L306.2,36V16.6h5.4v28h-5.8l-12.3-19.7v19.7H288.1z"/>
		<path d="M313.6,16.6h23.4v5h-9v23h-5.4v-23h-9V16.6z"/>
		<path d="M351.3,16.6c1.3,0,2.4,0.2,3.4,0.7c1,0.5,1.9,1.1,2.6,1.9c0.7,0.8,1.3,1.7,1.7,2.7c0.4,1,0.6,2.1,0.6,3.2
			c0,0.9-0.1,1.8-0.4,2.7c-0.3,0.9-0.7,1.7-1.2,2.5c-0.5,0.8-1.1,1.5-1.8,2.1c-0.7,0.6-1.5,1.1-2.3,1.5l7.5,10.7h-6.5l-7-10h-3.6v10
			h-5.4v-28H351.3z M344.3,29.6h6.2c0.5,0,1-0.1,1.4-0.4c0.5-0.3,0.8-0.6,1.2-1c0.3-0.4,0.6-0.9,0.8-1.4s0.3-1,0.3-1.6
			c0-0.5-0.1-0.9-0.2-1.3c-0.1-0.4-0.4-0.8-0.6-1.2c-0.3-0.3-0.6-0.6-1-0.8c-0.4-0.2-0.8-0.3-1.3-0.3h-6.8V29.6z"/>
		<path d="M361.3,30.6c0-2.1,0.4-4,1.1-5.8s1.7-3.3,3-4.6c1.3-1.3,2.7-2.3,4.5-3.1c1.7-0.7,3.6-1.1,5.6-1.1c2,0,3.9,0.4,5.6,1.1
			c1.7,0.7,3.2,1.8,4.5,3.1c1.3,1.3,2.3,2.8,3,4.6c0.7,1.8,1.1,3.7,1.1,5.8s-0.4,4-1.1,5.8c-0.7,1.8-1.7,3.3-3,4.6
			c-1.3,1.3-2.8,2.3-4.5,3.1c-1.7,0.7-3.6,1.1-5.6,1.1c-2,0-3.9-0.4-5.6-1.1c-1.7-0.7-3.2-1.8-4.5-3.1c-1.3-1.3-2.2-2.8-3-4.6
			C361.7,34.6,361.3,32.7,361.3,30.6z M375.5,40.2c1.3,0,2.4-0.2,3.5-0.7c1.1-0.5,2-1.2,2.8-2c0.8-0.9,1.4-1.9,1.8-3.1
			c0.4-1.2,0.7-2.4,0.7-3.8s-0.2-2.6-0.7-3.8c-0.4-1.2-1-2.2-1.8-3.1c-0.8-0.9-1.7-1.5-2.8-2c-1.1-0.5-2.2-0.7-3.5-0.7
			c-1.2,0-2.4,0.2-3.5,0.7c-1.1,0.5-2,1.2-2.8,2s-1.4,1.9-1.8,3.1s-0.7,2.5-0.7,3.8s0.2,2.6,0.7,3.8c0.4,1.2,1.1,2.2,1.8,3
			c0.8,0.9,1.7,1.5,2.8,2C373,40,374.2,40.2,375.5,40.2z"/>
		<path d="M392.4,16.6h5.4v23h15.4v5h-20.8V16.6z"/>
	</g>
	<g>
		<path d="M521,30.6c0-2.1,0.4-4,1.1-5.8c0.7-1.8,1.7-3.3,2.9-4.6c1.3-1.3,2.7-2.3,4.4-3.1c1.7-0.7,3.5-1.1,5.5-1.1
			c2,0,3.8,0.4,5.5,1.1c1.7,0.7,3.2,1.8,4.4,3.1c1.2,1.3,2.2,2.8,2.9,4.6c0.7,1.8,1.1,3.7,1.1,5.8c0,1.8-0.2,3.4-0.7,5
			c-0.5,1.5-1.2,2.9-2.1,4.2l4.1,5.6h-6.4l-1.6-2.2c-2.1,1.3-4.5,2-7.2,2c-2,0-3.8-0.4-5.5-1.1c-1.7-0.7-3.2-1.8-4.4-3.1
			c-1.3-1.3-2.2-2.8-2.9-4.6C521.3,34.6,521,32.7,521,30.6z M534.9,40.2c1.5,0,2.9-0.4,4.1-1.1l-4.6-6.4h6.4l1.7,2.4
			c0.6-1.4,0.9-2.9,0.9-4.5c0-1.4-0.2-2.6-0.6-3.8s-1-2.2-1.8-3.1c-0.8-0.9-1.7-1.5-2.7-2s-2.2-0.7-3.4-0.7s-2.4,0.2-3.4,0.7
			s-2,1.2-2.7,2c-0.8,0.9-1.4,1.9-1.8,3.1s-0.6,2.4-0.6,3.8s0.2,2.6,0.6,3.8c0.4,1.2,1,2.2,1.8,3.1c0.8,0.9,1.7,1.5,2.7,2
			S533.7,40.2,534.9,40.2z"/>
		<path d="M557.5,16.6v16.7c0,1.1,0.2,2.1,0.5,2.9c0.3,0.9,0.8,1.6,1.4,2.2c0.6,0.6,1.3,1,2,1.4c0.8,0.3,1.6,0.5,2.5,0.5
			s1.7-0.2,2.5-0.5c0.8-0.3,1.4-0.8,2-1.4c0.6-0.6,1-1.3,1.4-2.2c0.3-0.9,0.5-1.8,0.5-2.9V16.6h5.4v16.7c0,1.7-0.3,3.3-0.9,4.8
			c-0.6,1.5-1.4,2.7-2.5,3.8c-1.1,1.1-2.3,1.9-3.7,2.5c-1.4,0.6-3,0.9-4.7,0.9c-1.7,0-3.2-0.3-4.7-0.9c-1.4-0.6-2.7-1.4-3.7-2.5
			c-1-1.1-1.9-2.3-2.5-3.8c-0.6-1.5-0.9-3-0.9-4.8V16.6H557.5z"/>
		<path d="M586.5,16.6h5.3l10.4,28h-5.4l-3.1-8.4h-8.8l-3,8.4h-5.4L586.5,16.6z M586.5,31.2h5.3l-2.6-7.3L586.5,31.2z"/>
		<path d="M604.8,16.6h5.4v23h15.4v5h-20.8V16.6z"/>
		<path d="M627.8,16.6h5.4v28h-5.4V16.6z"/>
		<path d="M635.6,16.6H659v5h-9v23h-5.4v-23h-9V16.6z"/>
		<path d="M660,16.6h6.4l6.8,10.6l6.8-10.6h6.1l-10.2,15.7v12.3h-5.4V32.3L660,16.6z"/>
		<path d="M694.1,30.6c0-2.1,0.4-4,1.1-5.8c0.7-1.8,1.7-3.3,2.9-4.6c1.2-1.3,2.7-2.3,4.4-3.1c1.7-0.7,3.6-1.1,5.6-1.1
			c1.7,0,3.3,0.3,4.8,0.9c1.5,0.6,2.8,1.4,4,2.4c1.2,1,2.2,2.2,3.1,3.7c0.9,1.4,1.5,3,1.9,4.7l-5.5,0c-0.7-2-1.7-3.6-3.2-4.8
			c-1.5-1.2-3.2-1.8-5.1-1.8c-1.2,0-2.4,0.2-3.4,0.7c-1.1,0.5-2,1.2-2.7,2s-1.4,1.9-1.8,3.1c-0.4,1.2-0.7,2.5-0.7,3.8
			s0.2,2.6,0.7,3.8c0.4,1.2,1,2.2,1.8,3c0.8,0.9,1.7,1.5,2.7,2s2.2,0.7,3.4,0.7c1,0,1.9-0.2,2.7-0.5c0.9-0.3,1.7-0.8,2.4-1.3
			c0.7-0.6,1.4-1.3,1.9-2.1c0.6-0.8,1-1.7,1.3-2.7h5.5c-0.4,1.7-1.1,3.3-2,4.7c-0.9,1.4-1.9,2.6-3.1,3.7c-1.2,1-2.5,1.8-4,2.4
			c-1.5,0.6-3.1,0.8-4.7,0.8c-2,0-3.9-0.4-5.6-1.1c-1.7-0.7-3.2-1.8-4.4-3.1c-1.2-1.3-2.2-2.8-2.9-4.6
			C694.4,34.6,694.1,32.7,694.1,30.6z"/>
		<path d="M723.2,30.6c0-2.1,0.4-4,1.1-5.8s1.7-3.3,3-4.6c1.3-1.3,2.7-2.3,4.5-3.1c1.7-0.7,3.6-1.1,5.6-1.1c2,0,3.9,0.4,5.6,1.1
			c1.7,0.7,3.2,1.8,4.5,3.1c1.3,1.3,2.3,2.8,3,4.6c0.7,1.8,1.1,3.7,1.1,5.8s-0.4,4-1.1,5.8c-0.7,1.8-1.7,3.3-3,4.6
			c-1.3,1.3-2.8,2.3-4.5,3.1c-1.7,0.7-3.6,1.1-5.6,1.1c-2,0-3.9-0.4-5.6-1.1c-1.7-0.7-3.2-1.8-4.5-3.1c-1.3-1.3-2.2-2.8-3-4.6
			C723.6,34.6,723.2,32.7,723.2,30.6z M737.3,40.2c1.3,0,2.4-0.2,3.5-0.7c1.1-0.5,2-1.2,2.8-2c0.8-0.9,1.4-1.9,1.8-3.1
			c0.4-1.2,0.7-2.4,0.7-3.8s-0.2-2.6-0.7-3.8c-0.4-1.2-1-2.2-1.8-3.1c-0.8-0.9-1.7-1.5-2.8-2c-1.1-0.5-2.2-0.7-3.5-0.7
			c-1.2,0-2.4,0.2-3.5,0.7c-1.1,0.5-2,1.2-2.8,2s-1.4,1.9-1.8,3.1s-0.7,2.5-0.7,3.8s0.2,2.6,0.7,3.8c0.4,1.2,1.1,2.2,1.8,3
			c0.8,0.9,1.7,1.5,2.8,2C734.9,40,736.1,40.2,737.3,40.2z"/>
		<path d="M753.6,44.6v-28h6L771.8,36V16.6h5.4v28h-5.8L759,24.9v19.7H753.6z"/>
		<path d="M779.2,16.6h23.4v5h-9v23h-5.4v-23h-9V16.6z"/>
		<path d="M816.9,16.6c1.3,0,2.4,0.2,3.4,0.7c1,0.5,1.9,1.1,2.6,1.9c0.7,0.8,1.3,1.7,1.7,2.7c0.4,1,0.6,2.1,0.6,3.2
			c0,0.9-0.1,1.8-0.4,2.7c-0.3,0.9-0.7,1.7-1.2,2.5c-0.5,0.8-1.1,1.5-1.8,2.1c-0.7,0.6-1.5,1.1-2.3,1.5l7.5,10.7h-6.5l-7-10h-3.6v10
			h-5.4v-28H816.9z M809.9,29.6h6.2c0.5,0,1-0.1,1.4-0.4c0.5-0.3,0.8-0.6,1.2-1c0.3-0.4,0.6-0.9,0.8-1.4s0.3-1,0.3-1.6
			c0-0.5-0.1-0.9-0.2-1.3c-0.1-0.4-0.4-0.8-0.6-1.2c-0.3-0.3-0.6-0.6-1-0.8c-0.4-0.2-0.8-0.3-1.3-0.3h-6.8V29.6z"/>
		<path d="M826.9,30.6c0-2.1,0.4-4,1.1-5.8s1.7-3.3,3-4.6c1.3-1.3,2.7-2.3,4.5-3.1c1.7-0.7,3.6-1.1,5.6-1.1c2,0,3.9,0.4,5.6,1.1
			c1.7,0.7,3.2,1.8,4.5,3.1c1.3,1.3,2.3,2.8,3,4.6c0.7,1.8,1.1,3.7,1.1,5.8s-0.4,4-1.1,5.8c-0.7,1.8-1.7,3.3-3,4.6
			c-1.3,1.3-2.8,2.3-4.5,3.1c-1.7,0.7-3.6,1.1-5.6,1.1c-2,0-3.9-0.4-5.6-1.1c-1.7-0.7-3.2-1.8-4.5-3.1c-1.3-1.3-2.2-2.8-3-4.6
			C827.3,34.6,826.9,32.7,826.9,30.6z M841,40.2c1.3,0,2.4-0.2,3.5-0.7c1.1-0.5,2-1.2,2.8-2c0.8-0.9,1.4-1.9,1.8-3.1
			c0.4-1.2,0.7-2.4,0.7-3.8s-0.2-2.6-0.7-3.8c-0.4-1.2-1-2.2-1.8-3.1c-0.8-0.9-1.7-1.5-2.8-2c-1.1-0.5-2.2-0.7-3.5-0.7
			c-1.2,0-2.4,0.2-3.5,0.7c-1.1,0.5-2,1.2-2.8,2s-1.4,1.9-1.8,3.1s-0.7,2.5-0.7,3.8s0.2,2.6,0.7,3.8c0.4,1.2,1.1,2.2,1.8,3
			c0.8,0.9,1.7,1.5,2.8,2C838.6,40,839.8,40.2,841,40.2z"/>
		<path d="M858,16.6h5.4v23h15.4v5H858V16.6z"/>
	</g>
	<g>
		<path d="M986.6,30.6c0-2.1,0.4-4,1.1-5.8c0.7-1.8,1.7-3.3,2.9-4.6c1.3-1.3,2.7-2.3,4.4-3.1c1.7-0.7,3.5-1.1,5.5-1.1
			c2,0,3.8,0.4,5.5,1.1c1.7,0.7,3.2,1.8,4.4,3.1c1.2,1.3,2.2,2.8,2.9,4.6s1.1,3.7,1.1,5.8c0,1.8-0.2,3.4-0.7,5
			c-0.5,1.5-1.2,2.9-2.1,4.2l4.1,5.6h-6.4l-1.6-2.2c-2.1,1.3-4.5,2-7.2,2c-2,0-3.8-0.4-5.5-1.1c-1.7-0.7-3.2-1.8-4.4-3.1
			c-1.3-1.3-2.2-2.8-2.9-4.6C986.9,34.6,986.6,32.7,986.6,30.6z M1000.5,40.2c1.5,0,2.9-0.4,4.1-1.1l-4.6-6.4h6.4l1.7,2.4
			c0.6-1.4,0.9-2.9,0.9-4.5c0-1.4-0.2-2.6-0.6-3.8c-0.4-1.2-1-2.2-1.8-3.1c-0.8-0.9-1.7-1.5-2.7-2c-1-0.5-2.2-0.7-3.4-0.7
			s-2.4,0.2-3.4,0.7c-1.1,0.5-2,1.2-2.7,2c-0.8,0.9-1.4,1.9-1.8,3.1c-0.4,1.2-0.6,2.4-0.6,3.8s0.2,2.6,0.6,3.8
			c0.4,1.2,1,2.2,1.8,3.1c0.8,0.9,1.7,1.5,2.7,2C998.2,40,999.3,40.2,1000.5,40.2z"/>
		<path d="M1023.1,16.6v16.7c0,1.1,0.2,2.1,0.5,2.9c0.3,0.9,0.8,1.6,1.4,2.2c0.6,0.6,1.3,1,2,1.4c0.8,0.3,1.6,0.5,2.5,0.5
			c0.9,0,1.7-0.2,2.5-0.5c0.8-0.3,1.4-0.8,2-1.4c0.6-0.6,1-1.3,1.4-2.2c0.3-0.9,0.5-1.8,0.5-2.9V16.6h5.4v16.7
			c0,1.7-0.3,3.3-0.9,4.8c-0.6,1.5-1.4,2.7-2.5,3.8c-1.1,1.1-2.3,1.9-3.7,2.5c-1.4,0.6-3,0.9-4.7,0.9s-3.2-0.3-4.7-0.9
			c-1.4-0.6-2.7-1.4-3.7-2.5c-1-1.1-1.9-2.3-2.5-3.8c-0.6-1.5-0.9-3-0.9-4.8V16.6H1023.1z"/>
		<path d="M1052.1,16.6h5.3l10.4,28h-5.4l-3.1-8.4h-8.8l-3,8.4h-5.4L1052.1,16.6z M1052.1,31.2h5.3l-2.6-7.3L1052.1,31.2z"/>
		<path d="M1070.4,16.6h5.4v23h15.4v5h-20.8V16.6z"/>
		<path d="M1093.4,16.6h5.4v28h-5.4V16.6z"/>
		<path d="M1101.2,16.6h23.4v5h-9v23h-5.4v-23h-9V16.6z"/>
		<path d="M1125.6,16.6h6.4l6.8,10.6l6.8-10.6h6.1l-10.2,15.7v12.3h-5.4V32.3L1125.6,16.6z"/>
		<path d="M1159.7,30.6c0-2.1,0.4-4,1.1-5.8c0.7-1.8,1.7-3.3,2.9-4.6c1.2-1.3,2.7-2.3,4.4-3.1c1.7-0.7,3.6-1.1,5.6-1.1
			c1.7,0,3.3,0.3,4.8,0.9c1.5,0.6,2.8,1.4,4,2.4c1.2,1,2.2,2.2,3.1,3.7c0.9,1.4,1.5,3,1.9,4.7l-5.5,0c-0.7-2-1.7-3.6-3.2-4.8
			s-3.2-1.8-5.1-1.8c-1.2,0-2.4,0.2-3.4,0.7c-1.1,0.5-2,1.2-2.7,2s-1.4,1.9-1.8,3.1s-0.7,2.5-0.7,3.8s0.2,2.6,0.7,3.8
			c0.4,1.2,1,2.2,1.8,3c0.8,0.9,1.7,1.5,2.7,2c1.1,0.5,2.2,0.7,3.4,0.7c1,0,1.9-0.2,2.7-0.5c0.9-0.3,1.7-0.8,2.4-1.3
			c0.7-0.6,1.4-1.3,1.9-2.1s1-1.7,1.3-2.7h5.5c-0.4,1.7-1.1,3.3-2,4.7c-0.9,1.4-1.9,2.6-3.1,3.7c-1.2,1-2.5,1.8-4,2.4
			c-1.5,0.6-3.1,0.8-4.7,0.8c-2,0-3.9-0.4-5.6-1.1c-1.7-0.7-3.2-1.8-4.4-3.1c-1.2-1.3-2.2-2.8-2.9-4.6
			C1160,34.6,1159.7,32.7,1159.7,30.6z"/>
		<path d="M1188.8,30.6c0-2.1,0.4-4,1.1-5.8c0.7-1.8,1.7-3.3,3-4.6c1.3-1.3,2.7-2.3,4.5-3.1c1.7-0.7,3.6-1.1,5.6-1.1
			c2,0,3.9,0.4,5.6,1.1c1.7,0.7,3.2,1.8,4.5,3.1c1.3,1.3,2.3,2.8,3,4.6c0.7,1.8,1.1,3.7,1.1,5.8s-0.4,4-1.1,5.8
			c-0.7,1.8-1.7,3.3-3,4.6c-1.3,1.3-2.8,2.3-4.5,3.1c-1.7,0.7-3.6,1.1-5.6,1.1c-2,0-3.9-0.4-5.6-1.1c-1.7-0.7-3.2-1.8-4.5-3.1
			c-1.3-1.3-2.2-2.8-3-4.6C1189.2,34.6,1188.8,32.7,1188.8,30.6z M1202.9,40.2c1.3,0,2.4-0.2,3.5-0.7s2-1.2,2.8-2
			c0.8-0.9,1.4-1.9,1.8-3.1c0.4-1.2,0.7-2.4,0.7-3.8s-0.2-2.6-0.7-3.8s-1-2.2-1.8-3.1c-0.8-0.9-1.7-1.5-2.8-2s-2.2-0.7-3.5-0.7
			c-1.2,0-2.4,0.2-3.5,0.7c-1.1,0.5-2,1.2-2.8,2s-1.4,1.9-1.8,3.1s-0.7,2.5-0.7,3.8s0.2,2.6,0.7,3.8c0.4,1.2,1.1,2.2,1.8,3
			c0.8,0.9,1.7,1.5,2.8,2C1200.5,40,1201.7,40.2,1202.9,40.2z"/>
		<path d="M1219.2,44.6v-28h6l12.1,19.3V16.6h5.4v28h-5.8l-12.3-19.7v19.7H1219.2z"/>
		<path d="M1244.8,16.6h23.4v5h-9v23h-5.4v-23h-9V16.6z"/>
		<path d="M1282.5,16.6c1.3,0,2.4,0.2,3.4,0.7c1,0.5,1.9,1.1,2.6,1.9c0.7,0.8,1.3,1.7,1.7,2.7c0.4,1,0.6,2.1,0.6,3.2
			c0,0.9-0.1,1.8-0.4,2.7c-0.3,0.9-0.7,1.7-1.2,2.5c-0.5,0.8-1.1,1.5-1.8,2.1s-1.5,1.1-2.3,1.5l7.5,10.7h-6.5l-7-10h-3.6v10h-5.4
			v-28H1282.5z M1275.5,29.6h6.2c0.5,0,1-0.1,1.4-0.4s0.8-0.6,1.2-1c0.3-0.4,0.6-0.9,0.8-1.4c0.2-0.5,0.3-1,0.3-1.6
			c0-0.5-0.1-0.9-0.2-1.3c-0.1-0.4-0.4-0.8-0.6-1.2s-0.6-0.6-1-0.8c-0.4-0.2-0.8-0.3-1.3-0.3h-6.8V29.6z"/>
		<path d="M1292.5,30.6c0-2.1,0.4-4,1.1-5.8c0.7-1.8,1.7-3.3,3-4.6c1.3-1.3,2.7-2.3,4.5-3.1c1.7-0.7,3.6-1.1,5.6-1.1
			c2,0,3.9,0.4,5.6,1.1c1.7,0.7,3.2,1.8,4.5,3.1c1.3,1.3,2.3,2.8,3,4.6s1.1,3.7,1.1,5.8s-0.4,4-1.1,5.8c-0.7,1.8-1.7,3.3-3,4.6
			c-1.3,1.3-2.8,2.3-4.5,3.1c-1.7,0.7-3.6,1.1-5.6,1.1c-2,0-3.9-0.4-5.6-1.1c-1.7-0.7-3.2-1.8-4.5-3.1c-1.3-1.3-2.2-2.8-3-4.6
			C1292.9,34.6,1292.5,32.7,1292.5,30.6z M1306.6,40.2c1.3,0,2.4-0.2,3.5-0.7c1.1-0.5,2-1.2,2.8-2c0.8-0.9,1.4-1.9,1.8-3.1
			c0.4-1.2,0.7-2.4,0.7-3.8s-0.2-2.6-0.7-3.8c-0.4-1.2-1-2.2-1.8-3.1c-0.8-0.9-1.7-1.5-2.8-2c-1.1-0.5-2.2-0.7-3.5-0.7
			c-1.2,0-2.4,0.2-3.5,0.7c-1.1,0.5-2,1.2-2.8,2s-1.4,1.9-1.8,3.1s-0.7,2.5-0.7,3.8s0.2,2.6,0.7,3.8c0.4,1.2,1.1,2.2,1.8,3
			c0.8,0.9,1.7,1.5,2.8,2S1305.4,40.2,1306.6,40.2z"/>
		<path d="M1323.6,16.6h5.4v23h15.4v5h-20.8V16.6z"/>
	</g>
	<g>
		<path d="M1452.1,30.6c0-2.1,0.4-4,1.1-5.8c0.7-1.8,1.7-3.3,2.9-4.6c1.3-1.3,2.7-2.3,4.4-3.1c1.7-0.7,3.5-1.1,5.5-1.1
			c2,0,3.8,0.4,5.5,1.1c1.7,0.7,3.2,1.8,4.4,3.1c1.2,1.3,2.2,2.8,2.9,4.6c0.7,1.8,1.1,3.7,1.1,5.8c0,1.8-0.2,3.4-0.7,5
			c-0.5,1.5-1.2,2.9-2.1,4.2l4.1,5.6h-6.4l-1.6-2.2c-2.1,1.3-4.5,2-7.2,2c-2,0-3.8-0.4-5.5-1.1c-1.7-0.7-3.2-1.8-4.4-3.1
			c-1.3-1.3-2.2-2.8-2.9-4.6C1452.5,34.6,1452.1,32.7,1452.1,30.6z M1466.1,40.2c1.5,0,2.9-0.4,4.1-1.1l-4.6-6.4h6.4l1.7,2.4
			c0.6-1.4,0.9-2.9,0.9-4.5c0-1.4-0.2-2.6-0.6-3.8s-1-2.2-1.8-3.1c-0.8-0.9-1.7-1.5-2.7-2s-2.2-0.7-3.4-0.7s-2.4,0.2-3.4,0.7
			s-2,1.2-2.7,2c-0.8,0.9-1.4,1.9-1.8,3.1s-0.6,2.4-0.6,3.8s0.2,2.6,0.6,3.8c0.4,1.2,1,2.2,1.8,3.1c0.8,0.9,1.7,1.5,2.7,2
			S1464.9,40.2,1466.1,40.2z"/>
		<path d="M1488.7,16.6v16.7c0,1.1,0.2,2.1,0.5,2.9c0.3,0.9,0.8,1.6,1.4,2.2c0.6,0.6,1.3,1,2,1.4c0.8,0.3,1.6,0.5,2.5,0.5
			s1.7-0.2,2.5-0.5c0.8-0.3,1.4-0.8,2-1.4c0.6-0.6,1-1.3,1.4-2.2c0.3-0.9,0.5-1.8,0.5-2.9V16.6h5.4v16.7c0,1.7-0.3,3.3-0.9,4.8
			c-0.6,1.5-1.4,2.7-2.5,3.8c-1.1,1.1-2.3,1.9-3.7,2.5c-1.4,0.6-3,0.9-4.7,0.9c-1.7,0-3.2-0.3-4.7-0.9c-1.4-0.6-2.7-1.4-3.7-2.5
			c-1-1.1-1.9-2.3-2.5-3.8c-0.6-1.5-0.9-3-0.9-4.8V16.6H1488.7z"/>
		<path d="M1517.7,16.6h5.3l10.4,28h-5.4l-3.1-8.4h-8.8l-3,8.4h-5.4L1517.7,16.6z M1517.7,31.2h5.3l-2.6-7.3L1517.7,31.2z"/>
		<path d="M1536,16.6h5.4v23h15.4v5H1536V16.6z"/>
		<path d="M1559,16.6h5.4v28h-5.4V16.6z"/>
		<path d="M1566.7,16.6h23.4v5h-9v23h-5.4v-23h-9V16.6z"/>
		<path d="M1591.1,16.6h6.4l6.8,10.6l6.8-10.6h6.1L1607,32.3v12.3h-5.4V32.3L1591.1,16.6z"/>
		<path d="M1625.3,30.6c0-2.1,0.4-4,1.1-5.8c0.7-1.8,1.7-3.3,2.9-4.6c1.2-1.3,2.7-2.3,4.4-3.1c1.7-0.7,3.6-1.1,5.6-1.1
			c1.7,0,3.3,0.3,4.8,0.9c1.5,0.6,2.8,1.4,4,2.4c1.2,1,2.2,2.2,3.1,3.7c0.9,1.4,1.5,3,1.9,4.7l-5.5,0c-0.7-2-1.7-3.6-3.2-4.8
			c-1.5-1.2-3.2-1.8-5.1-1.8c-1.2,0-2.4,0.2-3.4,0.7c-1.1,0.5-2,1.2-2.7,2s-1.4,1.9-1.8,3.1c-0.4,1.2-0.7,2.5-0.7,3.8
			s0.2,2.6,0.7,3.8c0.4,1.2,1,2.2,1.8,3c0.8,0.9,1.7,1.5,2.7,2s2.2,0.7,3.4,0.7c1,0,1.9-0.2,2.7-0.5c0.9-0.3,1.7-0.8,2.4-1.3
			c0.7-0.6,1.4-1.3,1.9-2.1c0.6-0.8,1-1.7,1.3-2.7h5.5c-0.4,1.7-1.1,3.3-2,4.7c-0.9,1.4-1.9,2.6-3.1,3.7c-1.2,1-2.5,1.8-4,2.4
			c-1.5,0.6-3.1,0.8-4.7,0.8c-2,0-3.9-0.4-5.6-1.1c-1.7-0.7-3.2-1.8-4.4-3.1c-1.2-1.3-2.2-2.8-2.9-4.6
			C1625.6,34.6,1625.3,32.7,1625.3,30.6z"/>
		<path d="M1654.4,30.6c0-2.1,0.4-4,1.1-5.8s1.7-3.3,3-4.6c1.3-1.3,2.7-2.3,4.5-3.1c1.7-0.7,3.6-1.1,5.6-1.1c2,0,3.9,0.4,5.6,1.1
			c1.7,0.7,3.2,1.8,4.5,3.1c1.3,1.3,2.3,2.8,3,4.6c0.7,1.8,1.1,3.7,1.1,5.8s-0.4,4-1.1,5.8c-0.7,1.8-1.7,3.3-3,4.6
			c-1.3,1.3-2.8,2.3-4.5,3.1c-1.7,0.7-3.6,1.1-5.6,1.1c-2,0-3.9-0.4-5.6-1.1c-1.7-0.7-3.2-1.8-4.5-3.1c-1.3-1.3-2.2-2.8-3-4.6
			C1654.7,34.6,1654.4,32.7,1654.4,30.6z M1668.5,40.2c1.3,0,2.4-0.2,3.5-0.7c1.1-0.5,2-1.2,2.8-2c0.8-0.9,1.4-1.9,1.8-3.1
			c0.4-1.2,0.7-2.4,0.7-3.8s-0.2-2.6-0.7-3.8c-0.4-1.2-1-2.2-1.8-3.1c-0.8-0.9-1.7-1.5-2.8-2c-1.1-0.5-2.2-0.7-3.5-0.7
			c-1.2,0-2.4,0.2-3.5,0.7c-1.1,0.5-2,1.2-2.8,2s-1.4,1.9-1.8,3.1s-0.7,2.5-0.7,3.8s0.2,2.6,0.7,3.8c0.4,1.2,1.1,2.2,1.8,3
			c0.8,0.9,1.7,1.5,2.8,2C1666.1,40,1667.3,40.2,1668.5,40.2z"/>
		<path d="M1684.8,44.6v-28h6l12.1,19.3V16.6h5.4v28h-5.8l-12.3-19.7v19.7H1684.8z"/>
		<path d="M1710.4,16.6h23.4v5h-9v23h-5.4v-23h-9V16.6z"/>
		<path d="M1748.1,16.6c1.3,0,2.4,0.2,3.4,0.7c1,0.5,1.9,1.1,2.6,1.9c0.7,0.8,1.3,1.7,1.7,2.7c0.4,1,0.6,2.1,0.6,3.2
			c0,0.9-0.1,1.8-0.4,2.7c-0.3,0.9-0.7,1.7-1.2,2.5c-0.5,0.8-1.1,1.5-1.8,2.1c-0.7,0.6-1.5,1.1-2.3,1.5l7.5,10.7h-6.5l-7-10h-3.6v10
			h-5.4v-28H1748.1z M1741.1,29.6h6.2c0.5,0,1-0.1,1.4-0.4c0.5-0.3,0.8-0.6,1.2-1c0.3-0.4,0.6-0.9,0.8-1.4s0.3-1,0.3-1.6
			c0-0.5-0.1-0.9-0.2-1.3c-0.1-0.4-0.4-0.8-0.6-1.2c-0.3-0.3-0.6-0.6-1-0.8c-0.4-0.2-0.8-0.3-1.3-0.3h-6.8V29.6z"/>
		<path d="M1758.1,30.6c0-2.1,0.4-4,1.1-5.8s1.7-3.3,3-4.6c1.3-1.3,2.7-2.3,4.5-3.1c1.7-0.7,3.6-1.1,5.6-1.1c2,0,3.9,0.4,5.6,1.1
			c1.7,0.7,3.2,1.8,4.5,3.1c1.3,1.3,2.3,2.8,3,4.6c0.7,1.8,1.1,3.7,1.1,5.8s-0.4,4-1.1,5.8c-0.7,1.8-1.7,3.3-3,4.6
			c-1.3,1.3-2.8,2.3-4.5,3.1c-1.7,0.7-3.6,1.1-5.6,1.1c-2,0-3.9-0.4-5.6-1.1c-1.7-0.7-3.2-1.8-4.5-3.1c-1.3-1.3-2.2-2.8-3-4.6
			C1758.5,34.6,1758.1,32.7,1758.1,30.6z M1772.2,40.2c1.3,0,2.4-0.2,3.5-0.7c1.1-0.5,2-1.2,2.8-2c0.8-0.9,1.4-1.9,1.8-3.1
			c0.4-1.2,0.7-2.4,0.7-3.8s-0.2-2.6-0.7-3.8c-0.4-1.2-1-2.2-1.8-3.1c-0.8-0.9-1.7-1.5-2.8-2c-1.1-0.5-2.2-0.7-3.5-0.7
			c-1.2,0-2.4,0.2-3.5,0.7c-1.1,0.5-2,1.2-2.8,2s-1.4,1.9-1.8,3.1s-0.7,2.5-0.7,3.8s0.2,2.6,0.7,3.8c0.4,1.2,1.1,2.2,1.8,3
			c0.8,0.9,1.7,1.5,2.8,2C1769.8,40,1771,40.2,1772.2,40.2z"/>
		<path d="M1789.1,16.6h5.4v23h15.4v5h-20.8V16.6z"/>
	</g>
	<g>
		<path d="M1917.7,30.6c0-2.1,0.4-4,1.1-5.8c0.7-1.8,1.7-3.3,2.9-4.6c1.3-1.3,2.7-2.3,4.4-3.1c1.7-0.7,3.5-1.1,5.5-1.1
			c2,0,3.8,0.4,5.5,1.1c1.7,0.7,3.2,1.8,4.4,3.1c1.2,1.3,2.2,2.8,2.9,4.6c0.7,1.8,1.1,3.7,1.1,5.8c0,1.8-0.2,3.4-0.7,5
			c-0.5,1.5-1.2,2.9-2.1,4.2l4.1,5.6h-6.4l-1.6-2.2c-2.1,1.3-4.5,2-7.2,2c-2,0-3.8-0.4-5.5-1.1c-1.7-0.7-3.2-1.8-4.4-3.1
			c-1.3-1.3-2.2-2.8-2.9-4.6C1918.1,34.6,1917.7,32.7,1917.7,30.6z M1931.7,40.2c1.5,0,2.9-0.4,4.1-1.1l-4.6-6.4h6.4l1.7,2.4
			c0.6-1.4,0.9-2.9,0.9-4.5c0-1.4-0.2-2.6-0.6-3.8s-1-2.2-1.8-3.1c-0.8-0.9-1.7-1.5-2.7-2s-2.2-0.7-3.4-0.7s-2.4,0.2-3.4,0.7
			s-2,1.2-2.7,2c-0.8,0.9-1.4,1.9-1.8,3.1s-0.6,2.4-0.6,3.8s0.2,2.6,0.6,3.8c0.4,1.2,1,2.2,1.8,3.1c0.8,0.9,1.7,1.5,2.7,2
			S1930.5,40.2,1931.7,40.2z"/>
		<path d="M1954.3,16.6v16.7c0,1.1,0.2,2.1,0.5,2.9c0.3,0.9,0.8,1.6,1.4,2.2c0.6,0.6,1.3,1,2,1.4c0.8,0.3,1.6,0.5,2.5,0.5
			s1.7-0.2,2.5-0.5c0.8-0.3,1.4-0.8,2-1.4c0.6-0.6,1-1.3,1.4-2.2c0.3-0.9,0.5-1.8,0.5-2.9V16.6h5.4v16.7c0,1.7-0.3,3.3-0.9,4.8
			c-0.6,1.5-1.4,2.7-2.5,3.8c-1.1,1.1-2.3,1.9-3.7,2.5c-1.4,0.6-3,0.9-4.7,0.9c-1.7,0-3.2-0.3-4.7-0.9c-1.4-0.6-2.7-1.4-3.7-2.5
			c-1-1.1-1.9-2.3-2.5-3.8c-0.6-1.5-0.9-3-0.9-4.8V16.6H1954.3z"/>
		<path d="M1983.3,16.6h5.3l10.4,28h-5.4l-3.1-8.4h-8.8l-3,8.4h-5.4L1983.3,16.6z M1983.3,31.2h5.3l-2.6-7.3L1983.3,31.2z"/>
		<path d="M2001.6,16.6h5.4v23h15.4v5h-20.8V16.6z"/>
		<path d="M2024.6,16.6h5.4v28h-5.4V16.6z"/>
		<path d="M2032.3,16.6h23.4v5h-9v23h-5.4v-23h-9V16.6z"/>
		<path d="M2056.7,16.6h6.4l6.8,10.6l6.8-10.6h6.1l-10.2,15.7v12.3h-5.4V32.3L2056.7,16.6z"/>
		<path d="M2090.9,30.6c0-2.1,0.4-4,1.1-5.8c0.7-1.8,1.7-3.3,2.9-4.6c1.2-1.3,2.7-2.3,4.4-3.1c1.7-0.7,3.6-1.1,5.6-1.1
			c1.7,0,3.3,0.3,4.8,0.9c1.5,0.6,2.8,1.4,4,2.4c1.2,1,2.2,2.2,3.1,3.7c0.9,1.4,1.5,3,1.9,4.7l-5.5,0c-0.7-2-1.7-3.6-3.2-4.8
			c-1.5-1.2-3.2-1.8-5.1-1.8c-1.2,0-2.4,0.2-3.4,0.7c-1.1,0.5-2,1.2-2.7,2s-1.4,1.9-1.8,3.1c-0.4,1.2-0.7,2.5-0.7,3.8
			s0.2,2.6,0.7,3.8c0.4,1.2,1,2.2,1.8,3c0.8,0.9,1.7,1.5,2.7,2s2.2,0.7,3.4,0.7c1,0,1.9-0.2,2.7-0.5c0.9-0.3,1.7-0.8,2.4-1.3
			c0.7-0.6,1.4-1.3,1.9-2.1c0.6-0.8,1-1.7,1.3-2.7h5.5c-0.4,1.7-1.1,3.3-2,4.7c-0.9,1.4-1.9,2.6-3.1,3.7c-1.2,1-2.5,1.8-4,2.4
			c-1.5,0.6-3.1,0.8-4.7,0.8c-2,0-3.9-0.4-5.6-1.1c-1.7-0.7-3.2-1.8-4.4-3.1c-1.2-1.3-2.2-2.8-2.9-4.6
			C2091.2,34.6,2090.9,32.7,2090.9,30.6z"/>
		<path d="M2120,30.6c0-2.1,0.4-4,1.1-5.8s1.7-3.3,3-4.6c1.3-1.3,2.7-2.3,4.5-3.1c1.7-0.7,3.6-1.1,5.6-1.1c2,0,3.9,0.4,5.6,1.1
			c1.7,0.7,3.2,1.8,4.5,3.1c1.3,1.3,2.3,2.8,3,4.6c0.7,1.8,1.1,3.7,1.1,5.8s-0.4,4-1.1,5.8c-0.7,1.8-1.7,3.3-3,4.6
			c-1.3,1.3-2.8,2.3-4.5,3.1c-1.7,0.7-3.6,1.1-5.6,1.1c-2,0-3.9-0.4-5.6-1.1c-1.7-0.7-3.2-1.8-4.5-3.1c-1.3-1.3-2.2-2.8-3-4.6
			C2120.3,34.6,2120,32.7,2120,30.6z M2134.1,40.2c1.3,0,2.4-0.2,3.5-0.7c1.1-0.5,2-1.2,2.8-2c0.8-0.9,1.4-1.9,1.8-3.1
			c0.4-1.2,0.7-2.4,0.7-3.8s-0.2-2.6-0.7-3.8c-0.4-1.2-1-2.2-1.8-3.1c-0.8-0.9-1.7-1.5-2.8-2c-1.1-0.5-2.2-0.7-3.5-0.7
			c-1.2,0-2.4,0.2-3.5,0.7c-1.1,0.5-2,1.2-2.8,2s-1.4,1.9-1.8,3.1s-0.7,2.5-0.7,3.8s0.2,2.6,0.7,3.8c0.4,1.2,1.1,2.2,1.8,3
			c0.8,0.9,1.7,1.5,2.8,2C2131.7,40,2132.8,40.2,2134.1,40.2z"/>
		<path d="M2150.4,44.6v-28h6l12.1,19.3V16.6h5.4v28h-5.8l-12.3-19.7v19.7H2150.4z"/>
		<path d="M2176,16.6h23.4v5h-9v23h-5.4v-23h-9V16.6z"/>
		<path d="M2213.7,16.6c1.3,0,2.4,0.2,3.4,0.7c1,0.5,1.9,1.1,2.6,1.9c0.7,0.8,1.3,1.7,1.7,2.7c0.4,1,0.6,2.1,0.6,3.2
			c0,0.9-0.1,1.8-0.4,2.7c-0.3,0.9-0.7,1.7-1.2,2.5c-0.5,0.8-1.1,1.5-1.8,2.1c-0.7,0.6-1.5,1.1-2.3,1.5l7.5,10.7h-6.5l-7-10h-3.6v10
			h-5.4v-28H2213.7z M2206.7,29.6h6.2c0.5,0,1-0.1,1.4-0.4c0.5-0.3,0.8-0.6,1.2-1c0.3-0.4,0.6-0.9,0.8-1.4s0.3-1,0.3-1.6
			c0-0.5-0.1-0.9-0.2-1.3c-0.1-0.4-0.4-0.8-0.6-1.2c-0.3-0.3-0.6-0.6-1-0.8c-0.4-0.2-0.8-0.3-1.3-0.3h-6.8V29.6z"/>
		<path d="M2223.7,30.6c0-2.1,0.4-4,1.1-5.8s1.7-3.3,3-4.6c1.3-1.3,2.7-2.3,4.5-3.1c1.7-0.7,3.6-1.1,5.6-1.1c2,0,3.9,0.4,5.6,1.1
			c1.7,0.7,3.2,1.8,4.5,3.1c1.3,1.3,2.3,2.8,3,4.6c0.7,1.8,1.1,3.7,1.1,5.8s-0.4,4-1.1,5.8c-0.7,1.8-1.7,3.3-3,4.6
			c-1.3,1.3-2.8,2.3-4.5,3.1c-1.7,0.7-3.6,1.1-5.6,1.1c-2,0-3.9-0.4-5.6-1.1c-1.7-0.7-3.2-1.8-4.5-3.1c-1.3-1.3-2.2-2.8-3-4.6
			C2224.1,34.6,2223.7,32.7,2223.7,30.6z M2237.8,40.2c1.3,0,2.4-0.2,3.5-0.7c1.1-0.5,2-1.2,2.8-2c0.8-0.9,1.4-1.9,1.8-3.1
			c0.4-1.2,0.7-2.4,0.7-3.8s-0.2-2.6-0.7-3.8c-0.4-1.2-1-2.2-1.8-3.1c-0.8-0.9-1.7-1.5-2.8-2c-1.1-0.5-2.2-0.7-3.5-0.7
			c-1.2,0-2.4,0.2-3.5,0.7c-1.1,0.5-2,1.2-2.8,2s-1.4,1.9-1.8,3.1s-0.7,2.5-0.7,3.8s0.2,2.6,0.7,3.8c0.4,1.2,1.1,2.2,1.8,3
			c0.8,0.9,1.7,1.5,2.8,2C2235.4,40,2236.6,40.2,2237.8,40.2z"/>
		<path d="M2254.7,16.6h5.4v23h15.4v5h-20.8V16.6z"/>
	</g>
</g>
</svg>
