<?xml version="1.0" encoding="utf-8"?>
<!-- Generator: Adobe Illustrator 26.0.3, SVG Export Plug-In . SVG Version: 6.00 Build 0)  -->
<svg version="1.1" id="_x2014_ÎÓÈ_x5F_1" xmlns="http://www.w3.org/2000/svg" xmlns:xlink="http://www.w3.org/1999/xlink"
	 x="0px" y="0px" viewBox="0 0 775.4 27.8" style="enable-background:new 0 0 775.4 27.8;" xml:space="preserve">
<style type="text/css">
	.st0{filter:url(#Adobe_OpacityMaskFilter);}
	.st1{filter:url(#Adobe_OpacityMaskFilter_00000085960158353803874630000010369497107490529715_);}
	
		.st2{mask:url(#SVGID_1_);fill-rule:evenodd;clip-rule:evenodd;fill:url(#SVGID_00000040576479434685213720000005986674367198941318_);}
	.st3{opacity:0.5;fill-rule:evenodd;clip-rule:evenodd;fill:url(#SVGID_00000066512678454582276750000008320459054373865109_);}
	.st4{filter:url(#Adobe_OpacityMaskFilter_00000145740201481431944530000008038505761028583583_);}
	.st5{filter:url(#Adobe_OpacityMaskFilter_00000088105809579358336780000011596763023952849809_);}
	
		.st6{mask:url(#SVGID_00000181795694158412823360000011517782584602575770_);fill-rule:evenodd;clip-rule:evenodd;fill:url(#SVGID_00000169548226646735986660000007503018203089416628_);}
	.st7{opacity:0.5;fill-rule:evenodd;clip-rule:evenodd;fill:url(#SVGID_00000092455832750861447620000006837092959580033704_);}
	.st8{fill:#58A2D9;}
	.st9{fill-rule:evenodd;clip-rule:evenodd;fill:#58A2D9;}
	.st10{fill:#689BCD;}
	.st11{fill-rule:evenodd;clip-rule:evenodd;fill:#689BCD;}
	.st12{fill-rule:evenodd;clip-rule:evenodd;fill:#21527B;}
	.st13{fill-rule:evenodd;clip-rule:evenodd;fill:#123C4B;}
	.st14{filter:url(#Adobe_OpacityMaskFilter_00000081648530510753223830000011159930671002754461_);}
	.st15{filter:url(#Adobe_OpacityMaskFilter_00000146492385252390539310000007619160662498229170_);}
	
		.st16{mask:url(#SVGID_00000122691374186024924760000004554738877268272519_);fill-rule:evenodd;clip-rule:evenodd;fill:url(#SVGID_00000118359454441931969420000011307904003583196564_);}
	.st17{opacity:0.5;fill-rule:evenodd;clip-rule:evenodd;fill:url(#SVGID_00000119815782098322843350000018347366548343462316_);}
	.st18{fill-rule:evenodd;clip-rule:evenodd;fill:#5989B4;}
	.st19{fill-rule:evenodd;clip-rule:evenodd;fill:#507FAB;}
	.st20{fill-rule:evenodd;clip-rule:evenodd;fill:#6393BE;}
	.st21{filter:url(#Adobe_OpacityMaskFilter_00000097470058161338867860000013392857287157762495_);}
	.st22{filter:url(#Adobe_OpacityMaskFilter_00000037662595074813130710000006987438379161061791_);}
	
		.st23{mask:url(#SVGID_00000163042974548907896190000017634340920666271898_);fill-rule:evenodd;clip-rule:evenodd;fill:url(#SVGID_00000172412815008056980220000011546293736828194494_);}
	.st24{opacity:0.5;fill-rule:evenodd;clip-rule:evenodd;fill:url(#SVGID_00000136389344672469819090000004784026668341615290_);}
	.st25{filter:url(#Adobe_OpacityMaskFilter_00000138550254431824350950000009816309338772766867_);}
	.st26{filter:url(#Adobe_OpacityMaskFilter_00000109727842569697529490000016082382838431312039_);}
	
		.st27{mask:url(#SVGID_00000076581029365290264280000017298596307134550674_);fill-rule:evenodd;clip-rule:evenodd;fill:url(#SVGID_00000072967853765898464390000015961293284510217628_);}
	.st28{opacity:0.5;fill-rule:evenodd;clip-rule:evenodd;fill:url(#SVGID_00000166648513816086637830000011908329305782009277_);}
	.st29{filter:url(#Adobe_OpacityMaskFilter_00000099622527884605651650000012652819905357221016_);}
	.st30{filter:url(#Adobe_OpacityMaskFilter_00000000183243197490856740000007727364124727996833_);}
	
		.st31{mask:url(#SVGID_00000163776271085214150500000006624386999490520480_);fill-rule:evenodd;clip-rule:evenodd;fill:url(#SVGID_00000114068703321907697370000015619995301924966547_);}
	.st32{opacity:0.5;fill-rule:evenodd;clip-rule:evenodd;fill:url(#SVGID_00000163778416523505422450000010992170652555293610_);}
	.st33{fill-rule:evenodd;clip-rule:evenodd;fill:#42719C;}
	.st34{fill-rule:evenodd;clip-rule:evenodd;fill:#6B9AC0;}
	.st35{filter:url(#Adobe_OpacityMaskFilter_00000053544003541964483520000003139596500498356100_);}
	.st36{filter:url(#Adobe_OpacityMaskFilter_00000029043885259402447850000009076102182531778748_);}
	
		.st37{mask:url(#SVGID_00000137103054166828256160000000260123287519617717_);fill-rule:evenodd;clip-rule:evenodd;fill:url(#SVGID_00000020370658357189670750000002137522825565364386_);}
	.st38{opacity:0.5;fill-rule:evenodd;clip-rule:evenodd;fill:url(#SVGID_00000044142132283132031440000000502752746219871642_);}
	.st39{filter:url(#Adobe_OpacityMaskFilter_00000113346313930513636120000009271177418020291227_);}
	.st40{filter:url(#Adobe_OpacityMaskFilter_00000173866920694112217000000016197626688610427826_);}
	
		.st41{mask:url(#SVGID_00000183955687571765334090000008492369546030171050_);fill-rule:evenodd;clip-rule:evenodd;fill:url(#SVGID_00000071524403836079473750000012841495372316902274_);}
	.st42{opacity:0.5;fill-rule:evenodd;clip-rule:evenodd;fill:url(#SVGID_00000126307577051253820850000007788737142618944181_);}
	.st43{fill-rule:evenodd;clip-rule:evenodd;fill:#115987;}
	.st44{filter:url(#Adobe_OpacityMaskFilter_00000133523478167336985140000001427927390588463013_);}
	.st45{filter:url(#Adobe_OpacityMaskFilter_00000127741131258596798070000015393266678569570749_);}
	
		.st46{mask:url(#SVGID_00000090974886928065639960000018302154414031269250_);fill-rule:evenodd;clip-rule:evenodd;fill:url(#SVGID_00000137834430812285761200000012943120957189757885_);}
	.st47{opacity:0.5;fill-rule:evenodd;clip-rule:evenodd;fill:url(#SVGID_00000155126833404126860730000000613357831611724673_);}
	.st48{fill:#5E90BE;}
	.st49{fill-rule:evenodd;clip-rule:evenodd;fill:#5E90BE;}
	.st50{fill-rule:evenodd;clip-rule:evenodd;fill:#2F5982;}
	.st51{fill:#2C5C83;}
	.st52{fill-rule:evenodd;clip-rule:evenodd;fill:#2C5C83;}
	.st53{filter:url(#Adobe_OpacityMaskFilter_00000074416374230850093480000004399765593109767866_);}
	.st54{filter:url(#Adobe_OpacityMaskFilter_00000014598659982290916470000013100225081291995806_);}
	
		.st55{mask:url(#SVGID_00000104705770574600246220000000154160250318133890_);fill-rule:evenodd;clip-rule:evenodd;fill:url(#SVGID_00000035523854231859596860000005421963402230550144_);}
	.st56{opacity:0.5;fill-rule:evenodd;clip-rule:evenodd;fill:url(#SVGID_00000089537422297926326470000012839454208384934048_);}
	.st57{opacity:0.3;fill-rule:evenodd;clip-rule:evenodd;fill:#6493BC;}
	.st58{filter:url(#Adobe_OpacityMaskFilter_00000147216529051456560790000012795126365185475993_);}
	.st59{filter:url(#Adobe_OpacityMaskFilter_00000158745768791074716980000017098028132364001159_);}
	
		.st60{mask:url(#SVGID_00000111883883942703167780000011543432079125036419_);fill:url(#SVGID_00000007389638906443317520000015137407515783226269_);}
	.st61{opacity:0.5;fill:url(#SVGID_00000119819288096741401240000005400632088314209920_);}
	.st62{opacity:0.3;fill-rule:evenodd;clip-rule:evenodd;fill:#5E90BE;}
	.st63{fill:#67A2D3;}
	.st64{fill-rule:evenodd;clip-rule:evenodd;fill:#67A2D3;}
	.st65{fill-rule:evenodd;clip-rule:evenodd;fill:#4C759F;}
	.st66{fill-rule:evenodd;clip-rule:evenodd;fill:#4A7FA7;}
	.st67{fill-rule:evenodd;clip-rule:evenodd;fill:#91BDEA;}
	.st68{fill:#E3ECF3;}
	.st69{fill:#3E70A9;}
	.st70{fill-rule:evenodd;clip-rule:evenodd;fill:#3E70A9;}
	.st71{fill:#3786BC;}
	.st72{filter:url(#Adobe_OpacityMaskFilter_00000132786925737002739020000003973869752901377471_);}
	.st73{filter:url(#Adobe_OpacityMaskFilter_00000044160415971446391030000012748262573521594286_);}
	
		.st74{mask:url(#SVGID_00000082369066677437196950000017389083678198932134_);fill:url(#SVGID_00000068638449056326114520000003230559239062555297_);}
	.st75{opacity:0.5;fill:url(#SVGID_00000011016842698425162240000005710694297648625808_);}
	.st76{filter:url(#Adobe_OpacityMaskFilter_00000098932686439317180750000015933512896047327154_);}
	.st77{filter:url(#Adobe_OpacityMaskFilter_00000131342260969478498690000008820725861671143070_);}
	
		.st78{mask:url(#SVGID_00000032613327323823667950000014605878558980482185_);fill:url(#SVGID_00000149379005825132486620000017067284290113466808_);}
	.st79{opacity:0.5;fill:url(#SVGID_00000152234529860132522120000004263581253821606810_);}
	.st80{fill:#2A5A7E;}
	.st81{fill-rule:evenodd;clip-rule:evenodd;fill:#2A5A7E;}
	.st82{fill:#285274;}
	.st83{fill:url(#SVGID_00000088828870769605486830000001282116302250823304_);}
	.st84{fill:url(#SVGID_00000004535254216413868170000003784040929099903933_);}
	.st85{fill:#FFFFFF;}
	.st86{fill:url(#SVGID_00000023977581460369229070000003022546788518342828_);}
	.st87{fill:url(#SVGID_00000013167416336484565790000009385966998233513642_);}
	.st88{fill:url(#SVGID_00000041272237186061516240000009679846497380410259_);}
	.st89{fill:url(#SVGID_00000080198611974521021170000015884785915369701054_);}
	.st90{fill:url(#SVGID_00000157992849403736276750000013998730637117668494_);}
	.st91{fill:url(#SVGID_00000181055116284963892240000006416072942911638149_);}
	.st92{fill:url(#SVGID_00000073715811219154671170000001709415098795640471_);}
	.st93{fill:url(#SVGID_00000005952157839191430710000004970523529920817328_);}
	.st94{fill:url(#SVGID_00000108301586023721872510000006592473258667775142_);}
	.st95{fill:url(#SVGID_00000051345592731112145170000001864530436043370674_);}
	.st96{fill:url(#SVGID_00000150814240970168054160000007637406718232606625_);}
	.st97{fill:url(#SVGID_00000085959635637489071150000012430310247937200004_);}
	.st98{fill:url(#SVGID_00000083782242296570595750000007359861930768786065_);}
	.st99{fill:url(#SVGID_00000111910119232044515630000001337030735184849076_);}
	.st100{fill:url(#SVGID_00000043421349900220100510000013083668120790435488_);}
	.st101{fill:url(#SVGID_00000089552307114257360970000011528808080586705574_);}
	.st102{fill:url(#SVGID_00000108292927229936158890000018412033034352283554_);}
	.st103{fill:url(#SVGID_00000091732804323786292030000015507776294925269667_);}
	.st104{fill:url(#SVGID_00000155106537091372565490000012452359084495897274_);}
	.st105{fill:url(#SVGID_00000005948368312122709580000004043139133272312744_);}
	.st106{fill:url(#SVGID_00000064312064630599343050000003080666784104358824_);}
	.st107{fill:url(#SVGID_00000072981680679609837270000010253688232694450304_);}
	.st108{fill:url(#SVGID_00000122711024762810072770000003763800838027453105_);}
	.st109{fill:url(#SVGID_00000175313411224797326490000017327763136329404800_);}
	.st110{fill:url(#SVGID_00000138533121268136533660000010663740610277732509_);}
</style>
<g>
	<g>
		<g>
			<linearGradient id="SVGID_1_" gradientUnits="userSpaceOnUse" x1="582.5471" y1="16.5887" x2="775.4045" y2="16.5887">
				<stop  offset="0" style="stop-color:#00E9BA"/>
				<stop  offset="1" style="stop-color:#F800FF"/>
			</linearGradient>
			<polygon style="fill:url(#SVGID_1_);" points="326.3,5.4 313,27.7 324,27.7 337.3,5.4 			"/>
			
				<linearGradient id="SVGID_00000121249736477940628710000006883360820086258570_" gradientUnits="userSpaceOnUse" x1="582.5471" y1="16.5887" x2="775.4045" y2="16.5887">
				<stop  offset="0" style="stop-color:#00E9BA"/>
				<stop  offset="1" style="stop-color:#F800FF"/>
			</linearGradient>
			<polygon style="fill:url(#SVGID_00000121249736477940628710000006883360820086258570_);" points="249.7,5.4 236.4,27.7 
				247.5,27.7 260.9,5.4 			"/>
			
				<linearGradient id="SVGID_00000045617801696479378300000011459086529792387745_" gradientUnits="userSpaceOnUse" x1="582.5471" y1="16.5887" x2="775.4045" y2="16.5887">
				<stop  offset="0" style="stop-color:#00E9BA"/>
				<stop  offset="1" style="stop-color:#F800FF"/>
			</linearGradient>
			<polygon style="fill:url(#SVGID_00000045617801696479378300000011459086529792387745_);" points="295.7,5.4 282.3,27.7 
				293.3,27.7 306.6,5.4 			"/>
			
				<linearGradient id="SVGID_00000011017467656073368870000010856194719581969060_" gradientUnits="userSpaceOnUse" x1="582.5471" y1="16.5887" x2="775.4045" y2="16.5887">
				<stop  offset="0" style="stop-color:#00E9BA"/>
				<stop  offset="1" style="stop-color:#F800FF"/>
			</linearGradient>
			<polygon style="fill:url(#SVGID_00000011017467656073368870000010856194719581969060_);" points="280.4,5.4 267,27.7 278,27.7 
				291.4,5.4 			"/>
			
				<linearGradient id="SVGID_00000032626265092118561930000003087029531899198889_" gradientUnits="userSpaceOnUse" x1="582.5471" y1="16.5887" x2="775.4045" y2="16.5887">
				<stop  offset="0" style="stop-color:#00E9BA"/>
				<stop  offset="1" style="stop-color:#F800FF"/>
			</linearGradient>
			<polygon style="fill:url(#SVGID_00000032626265092118561930000003087029531899198889_);" points="310.9,5.4 297.6,27.7 
				308.7,27.7 322,5.4 			"/>
			
				<linearGradient id="SVGID_00000133486778851835741800000018174097245878501804_" gradientUnits="userSpaceOnUse" x1="582.5471" y1="16.5887" x2="775.4045" y2="16.5887">
				<stop  offset="0" style="stop-color:#00E9BA"/>
				<stop  offset="1" style="stop-color:#F800FF"/>
			</linearGradient>
			<polygon style="fill:url(#SVGID_00000133486778851835741800000018174097245878501804_);" points="234.6,5.4 221.3,27.7 
				232.1,27.7 245.4,5.4 			"/>
			
				<linearGradient id="SVGID_00000100355956675784762950000005671676033174220206_" gradientUnits="userSpaceOnUse" x1="582.5471" y1="16.5887" x2="775.4045" y2="16.5887">
				<stop  offset="0" style="stop-color:#00E9BA"/>
				<stop  offset="1" style="stop-color:#F800FF"/>
			</linearGradient>
			<polygon style="fill:url(#SVGID_00000100355956675784762950000005671676033174220206_);" points="265.2,5.4 251.8,27.7 
				262.7,27.7 276.1,5.4 			"/>
			
				<linearGradient id="SVGID_00000097491292725528704330000016116125295084091064_" gradientUnits="userSpaceOnUse" x1="582.5471" y1="11.1104" x2="775.4045" y2="11.1104">
				<stop  offset="0" style="stop-color:#00E9BA"/>
				<stop  offset="1" style="stop-color:#F800FF"/>
			</linearGradient>
			<polygon style="fill:url(#SVGID_00000097491292725528704330000016116125295084091064_);" points="162.5,5.4 162.5,16.8 
				169.2,5.4 			"/>
			
				<linearGradient id="SVGID_00000047058368816813842690000003092034534215944356_" gradientUnits="userSpaceOnUse" x1="582.5471" y1="16.5887" x2="775.4045" y2="16.5887">
				<stop  offset="0" style="stop-color:#00E9BA"/>
				<stop  offset="1" style="stop-color:#F800FF"/>
			</linearGradient>
			<polygon style="fill:url(#SVGID_00000047058368816813842690000003092034534215944356_);" points="173.5,5.4 162.5,24 162.5,27.7 
				171.1,27.7 184.4,5.4 			"/>
			
				<linearGradient id="SVGID_00000087398816949330154520000012729122239610862260_" gradientUnits="userSpaceOnUse" x1="582.5471" y1="16.5887" x2="775.4045" y2="16.5887">
				<stop  offset="0" style="stop-color:#00E9BA"/>
				<stop  offset="1" style="stop-color:#F800FF"/>
			</linearGradient>
			<polygon style="fill:url(#SVGID_00000087398816949330154520000012729122239610862260_);" points="204.1,5.4 190.7,27.7 
				201.9,27.7 215.2,5.4 			"/>
			
				<linearGradient id="SVGID_00000110469607302942555590000014904697169275208848_" gradientUnits="userSpaceOnUse" x1="582.5471" y1="16.5887" x2="775.4045" y2="16.5887">
				<stop  offset="0" style="stop-color:#00E9BA"/>
				<stop  offset="1" style="stop-color:#F800FF"/>
			</linearGradient>
			<polygon style="fill:url(#SVGID_00000110469607302942555590000014904697169275208848_);" points="219.5,5.4 206.2,27.7 217,27.7 
				230.3,5.4 			"/>
			
				<linearGradient id="SVGID_00000172437086415155131080000009689121433456491938_" gradientUnits="userSpaceOnUse" x1="582.5471" y1="16.5887" x2="775.4045" y2="16.5887">
				<stop  offset="0" style="stop-color:#00E9BA"/>
				<stop  offset="1" style="stop-color:#F800FF"/>
			</linearGradient>
			<polygon style="fill:url(#SVGID_00000172437086415155131080000009689121433456491938_);" points="188.7,5.4 175.4,27.7 
				186.4,27.7 199.8,5.4 			"/>
			
				<linearGradient id="SVGID_00000182515748919333327860000009322410959108888220_" gradientUnits="userSpaceOnUse" x1="582.5471" y1="16.4469" x2="775.4045" y2="16.4469">
				<stop  offset="0" style="stop-color:#00E9BA"/>
				<stop  offset="1" style="stop-color:#F800FF"/>
			</linearGradient>
			<polygon style="fill:url(#SVGID_00000182515748919333327860000009322410959108888220_);" points="722.7,5.3 736,27.6 747.1,27.6 
				733.8,5.3 			"/>
			
				<linearGradient id="SVGID_00000156556307049801161160000017498445965406066096_" gradientUnits="userSpaceOnUse" x1="582.5471" y1="13.879" x2="775.4045" y2="13.879">
				<stop  offset="0" style="stop-color:#00E9BA"/>
				<stop  offset="1" style="stop-color:#F800FF"/>
			</linearGradient>
			<path style="fill:url(#SVGID_00000156556307049801161160000017498445965406066096_);" d="M582.5,5.3L582.5,5.3l-55.1,0.1L523.4,0
				C489.7,0,456,0,422.3,0l-4.3,5.4l-62.9-0.1l0,0.1h-13.6l-13.3,22.3h11l12.4-20.8l2.7,2.7l-10.8,18.1h11.8v0v0c22.6,0,44,0,66.6,0
				l4.2-5.4h93.3l4.1,5.4l62.6,0l0-0.1h8.2L583.5,9.5l2.7-2.7l12.4,20.8h11L596.3,5.3H582.5z"/>
			
				<linearGradient id="SVGID_00000005967638719170984250000011240882024839445388_" gradientUnits="userSpaceOnUse" x1="582.5471" y1="16.4469" x2="775.4045" y2="16.4469">
				<stop  offset="0" style="stop-color:#00E9BA"/>
				<stop  offset="1" style="stop-color:#F800FF"/>
			</linearGradient>
			<polygon style="fill:url(#SVGID_00000005967638719170984250000011240882024839445388_);" points="677,5.3 690.3,27.6 701.5,27.6 
				688.2,5.3 			"/>
			
				<linearGradient id="SVGID_00000103236616688769038560000001928116433897141684_" gradientUnits="userSpaceOnUse" x1="582.5471" y1="16.4469" x2="775.4045" y2="16.4469">
				<stop  offset="0" style="stop-color:#00E9BA"/>
				<stop  offset="1" style="stop-color:#F800FF"/>
			</linearGradient>
			<polygon style="fill:url(#SVGID_00000103236616688769038560000001928116433897141684_);" points="692.5,5.3 705.8,27.6 
				716.6,27.6 703.2,5.3 			"/>
			
				<linearGradient id="SVGID_00000134971214538943290450000016510834765392577967_" gradientUnits="userSpaceOnUse" x1="582.5471" y1="16.4469" x2="775.4045" y2="16.4469">
				<stop  offset="0" style="stop-color:#00E9BA"/>
				<stop  offset="1" style="stop-color:#F800FF"/>
			</linearGradient>
			<polygon style="fill:url(#SVGID_00000134971214538943290450000016510834765392577967_);" points="707.5,5.3 720.9,27.6 
				731.7,27.6 718.4,5.3 			"/>
			
				<linearGradient id="SVGID_00000088819576572743686100000000663351243973915065_" gradientUnits="userSpaceOnUse" x1="582.5471" y1="16.4469" x2="775.4045" y2="16.4469">
				<stop  offset="0" style="stop-color:#00E9BA"/>
				<stop  offset="1" style="stop-color:#F800FF"/>
			</linearGradient>
			<polygon style="fill:url(#SVGID_00000088819576572743686100000000663351243973915065_);" points="753.5,5.3 766.8,27.6 
				775.4,27.6 775.4,23.8 764.3,5.3 			"/>
			
				<linearGradient id="SVGID_00000026871726898562608500000001303777849089367458_" gradientUnits="userSpaceOnUse" x1="582.5471" y1="10.9685" x2="775.4045" y2="10.9685">
				<stop  offset="0" style="stop-color:#00E9BA"/>
				<stop  offset="1" style="stop-color:#F800FF"/>
			</linearGradient>
			<polygon style="fill:url(#SVGID_00000026871726898562608500000001303777849089367458_);" points="768.6,5.3 775.4,16.6 
				775.4,5.3 			"/>
			
				<linearGradient id="SVGID_00000163071897022999685470000003091381261587790508_" gradientUnits="userSpaceOnUse" x1="582.5471" y1="16.4469" x2="775.4045" y2="16.4469">
				<stop  offset="0" style="stop-color:#00E9BA"/>
				<stop  offset="1" style="stop-color:#F800FF"/>
			</linearGradient>
			<polygon style="fill:url(#SVGID_00000163071897022999685470000003091381261587790508_);" points="738.1,5.3 751.4,27.6 
				762.5,27.6 749.2,5.3 			"/>
			
				<linearGradient id="SVGID_00000054961223634197822590000015122134366093068446_" gradientUnits="userSpaceOnUse" x1="582.5471" y1="16.4469" x2="775.4045" y2="16.4469">
				<stop  offset="0" style="stop-color:#00E9BA"/>
				<stop  offset="1" style="stop-color:#F800FF"/>
			</linearGradient>
			<polygon style="fill:url(#SVGID_00000054961223634197822590000015122134366093068446_);" points="600.6,5.3 613.9,27.6 
				624.9,27.6 611.5,5.3 			"/>
			
				<linearGradient id="SVGID_00000107566591316332839610000001001315399299819174_" gradientUnits="userSpaceOnUse" x1="582.5471" y1="16.4469" x2="775.4045" y2="16.4469">
				<stop  offset="0" style="stop-color:#00E9BA"/>
				<stop  offset="1" style="stop-color:#F800FF"/>
			</linearGradient>
			<polygon style="fill:url(#SVGID_00000107566591316332839610000001001315399299819174_);" points="615.8,5.3 629.2,27.6 
				640.3,27.6 627,5.3 			"/>
			
				<linearGradient id="SVGID_00000155838217402488232490000007461716090855502261_" gradientUnits="userSpaceOnUse" x1="582.5471" y1="16.4469" x2="775.4045" y2="16.4469">
				<stop  offset="0" style="stop-color:#00E9BA"/>
				<stop  offset="1" style="stop-color:#F800FF"/>
			</linearGradient>
			<polygon style="fill:url(#SVGID_00000155838217402488232490000007461716090855502261_);" points="646.5,5.3 659.9,27.6 
				670.9,27.6 657.5,5.3 			"/>
			
				<linearGradient id="SVGID_00000078029510719194086630000017167822449511265437_" gradientUnits="userSpaceOnUse" x1="582.5471" y1="16.4469" x2="775.4045" y2="16.4469">
				<stop  offset="0" style="stop-color:#00E9BA"/>
				<stop  offset="1" style="stop-color:#F800FF"/>
			</linearGradient>
			<polygon style="fill:url(#SVGID_00000078029510719194086630000017167822449511265437_);" points="661.8,5.3 675.2,27.6 686,27.6 
				672.7,5.3 			"/>
			
				<linearGradient id="SVGID_00000037683516781260146030000013883059286877776555_" gradientUnits="userSpaceOnUse" x1="582.5471" y1="16.4469" x2="775.4045" y2="16.4469">
				<stop  offset="0" style="stop-color:#00E9BA"/>
				<stop  offset="1" style="stop-color:#F800FF"/>
			</linearGradient>
			<polygon style="fill:url(#SVGID_00000037683516781260146030000013883059286877776555_);" points="631.3,5.3 644.6,27.6 
				655.6,27.6 642.2,5.3 			"/>
		</g>
	</g>
</g>
<g>
	<path class="st85" d="M3.3,6.4h8.5c0.8,0,1.6,0.2,2.2,0.5c0.7,0.3,1.3,0.8,1.8,1.4c0.5,0.6,0.9,1.2,1.2,1.9s0.4,1.5,0.4,2.3
		c0,0.9-0.2,1.7-0.5,2.5c-0.3,0.8-0.7,1.5-1.3,2.2c-0.6,0.6-1.2,1.1-1.9,1.5c-0.7,0.4-1.6,0.6-2.4,0.6H6.6v7.5H3.3V6.4z M6.6,9.6
		v6.6h4.7c0.4,0,0.8-0.1,1.1-0.3c0.3-0.2,0.7-0.5,0.9-0.8c0.3-0.3,0.5-0.7,0.6-1.2c0.2-0.4,0.2-0.9,0.2-1.3c0-0.4-0.1-0.7-0.2-1.1
		c-0.1-0.4-0.3-0.7-0.5-1c-0.2-0.3-0.5-0.5-0.8-0.7c-0.3-0.2-0.6-0.3-1-0.3L6.6,9.6z"/>
	<path class="st85" d="M30.1,6.4c0.8,0,1.6,0.2,2.2,0.5c0.7,0.3,1.3,0.8,1.8,1.4c0.5,0.6,0.9,1.2,1.2,1.9s0.4,1.5,0.4,2.3
		c0,0.7-0.1,1.3-0.3,2c-0.2,0.7-0.5,1.3-0.9,1.8c-0.4,0.6-0.8,1.1-1.3,1.5c-0.5,0.5-1.1,0.8-1.7,1.1l5.2,7.9h-3.9l-5-7.5h-3v7.5
		h-3.3V6.4H30.1z M24.8,16.2h4.7c0.4,0,0.8-0.1,1.1-0.3c0.3-0.2,0.7-0.5,0.9-0.8c0.3-0.3,0.5-0.7,0.6-1.2c0.2-0.4,0.2-0.9,0.2-1.3
		c0-0.4-0.1-0.7-0.2-1.1c-0.1-0.4-0.3-0.7-0.5-1c-0.2-0.3-0.5-0.5-0.8-0.7c-0.3-0.2-0.6-0.3-1-0.3l-5.1,0V16.2z"/>
	<path class="st85" d="M39.3,16.6c0-1.5,0.2-2.9,0.7-4.2c0.5-1.3,1.2-2.4,2-3.4C43,8.1,44,7.4,45.2,6.8C46.4,6.3,47.7,6,49.1,6
		c1.4,0,2.7,0.3,3.8,0.8c1.2,0.5,2.2,1.3,3,2.3c0.9,1,1.5,2.1,2.1,3.4s0.8,2.7,0.8,4.2c0,1.5-0.3,2.9-0.8,4.2
		c-0.5,1.3-1.2,2.4-2.1,3.4c-0.9,1-1.9,1.7-3.1,2.3c-1.2,0.5-2.4,0.8-3.8,0.8c-1.4,0-2.7-0.3-3.9-0.8c-1.2-0.5-2.2-1.3-3.1-2.2
		c-0.9-0.9-1.5-2.1-2-3.4C39.6,19.5,39.3,18.1,39.3,16.6z M49.1,24.1c0.9,0,1.8-0.2,2.6-0.6c0.8-0.4,1.5-0.9,2.1-1.6
		c0.6-0.7,1-1.5,1.4-2.4c0.3-0.9,0.5-1.9,0.5-3c0-1.1-0.2-2.1-0.5-3c-0.3-0.9-0.8-1.7-1.4-2.4c-0.6-0.7-1.3-1.2-2.1-1.6
		c-0.8-0.4-1.6-0.6-2.6-0.6c-0.9,0-1.8,0.2-2.6,0.6c-0.8,0.4-1.5,0.9-2.1,1.6c-0.6,0.7-1,1.5-1.4,2.4c-0.3,0.9-0.5,1.9-0.5,3
		c0,1.1,0.2,2.1,0.5,3c0.3,0.9,0.8,1.7,1.4,2.4c0.6,0.7,1.3,1.2,2.1,1.6C47.3,23.9,48.1,24.1,49.1,24.1z"/>
	<path class="st85" d="M62.2,16.6c0-1.5,0.2-2.9,0.7-4.2c0.5-1.3,1.2-2.4,2-3.4c0.9-0.9,1.9-1.7,3.1-2.2C69.2,6.3,70.4,6,71.8,6
		C73,6,74,6.2,75.1,6.6c1,0.4,1.9,0.9,2.7,1.6c0.8,0.7,1.5,1.6,2.1,2.6c0.6,1,1.1,2.1,1.4,3.3h-3.3c-0.5-1.5-1.3-2.7-2.4-3.6
		c-1.1-0.9-2.3-1.3-3.7-1.3c-0.9,0-1.8,0.2-2.6,0.6c-0.8,0.4-1.5,0.9-2,1.6c-0.6,0.7-1,1.5-1.3,2.4c-0.3,0.9-0.5,1.9-0.5,3
		c0,1.1,0.2,2.1,0.5,3c0.3,0.9,0.8,1.7,1.3,2.4c0.6,0.7,1.2,1.2,2,1.6c0.8,0.4,1.6,0.6,2.6,0.6c1.1,0,2.2-0.3,3.2-1s1.8-1.6,2.4-2.8
		h-5.6v-3.1l9.4,0v9.6h-3.3v-1.9c-0.8,0.7-1.8,1.3-2.8,1.7c-1,0.4-2.1,0.6-3.3,0.6c-1.4,0-2.7-0.3-3.8-0.8c-1.2-0.5-2.2-1.3-3.1-2.2
		c-0.9-0.9-1.5-2.1-2-3.4C62.4,19.5,62.2,18.1,62.2,16.6z"/>
	<path class="st85" d="M94.3,6.4c0.8,0,1.6,0.2,2.2,0.5c0.7,0.3,1.3,0.8,1.8,1.4c0.5,0.6,0.9,1.2,1.2,1.9c0.3,0.7,0.4,1.5,0.4,2.3
		c0,0.7-0.1,1.3-0.3,2c-0.2,0.7-0.5,1.3-0.9,1.8c-0.4,0.6-0.8,1.1-1.3,1.5c-0.5,0.5-1.1,0.8-1.7,1.1l5.2,7.9H97l-5-7.5h-3v7.5h-3.3
		V6.4H94.3z M89,16.2h4.7c0.4,0,0.8-0.1,1.1-0.3c0.3-0.2,0.7-0.5,0.9-0.8c0.3-0.3,0.5-0.7,0.6-1.2c0.2-0.4,0.2-0.9,0.2-1.3
		c0-0.4-0.1-0.7-0.2-1.1c-0.1-0.4-0.3-0.7-0.5-1c-0.2-0.3-0.5-0.5-0.8-0.7c-0.3-0.2-0.6-0.3-1-0.3l-5.1,0V16.2z"/>
	<path class="st85" d="M105,26.8V6.4h13.8v3.1h-10.5v5.1h8.1v3.2h-8.1v5.8h10.6v3.1H105z"/>
	<path class="st85" d="M121.9,20h3.3c0,0.5,0.2,1,0.4,1.5c0.2,0.5,0.6,0.9,1,1.3c0.4,0.4,0.9,0.7,1.4,0.9c0.5,0.2,1.1,0.3,1.7,0.3
		c1.3,0,2.3-0.2,2.9-0.7c0.6-0.5,0.9-1.1,0.9-1.9c0-0.5-0.1-1-0.2-1.3c-0.1-0.3-0.4-0.6-0.7-0.8c-0.3-0.2-0.7-0.4-1.1-0.6
		c-0.5-0.2-1-0.3-1.7-0.5c-0.2-0.1-0.4-0.1-0.6-0.2c-0.2-0.1-0.4-0.1-0.6-0.2c-0.1,0-0.2-0.1-0.2-0.1c-0.1,0-0.2,0-0.3-0.1l-0.1,0
		c-0.5-0.1-1-0.3-1.7-0.5s-1.3-0.5-1.9-1s-1.1-1-1.5-1.6c-0.4-0.7-0.6-1.5-0.6-2.5c0-1,0.2-1.8,0.6-2.6c0.4-0.7,1-1.4,1.6-1.9
		c0.6-0.5,1.4-0.9,2.1-1.2s1.5-0.4,2.2-0.4c1,0,2,0.1,3,0.4c0.9,0.3,1.7,0.7,2.4,1.3c0.7,0.6,1.2,1.3,1.7,2.1
		c0.4,0.8,0.6,1.8,0.6,2.9h-3.3c-0.1-1.1-0.4-1.9-1.1-2.6c-0.7-0.6-1.7-1-3-1c-0.5,0-0.9,0.1-1.4,0.2c-0.4,0.1-0.8,0.3-1.2,0.6
		c-0.3,0.3-0.6,0.6-0.8,0.9c-0.2,0.4-0.3,0.8-0.3,1.3c0,0.4,0.2,0.8,0.5,1.1c0.3,0.3,0.6,0.6,1,0.8c0.4,0.2,0.9,0.4,1.3,0.6
		c0.5,0.2,0.9,0.3,1.3,0.4c0.8,0.2,1.6,0.5,2.5,0.7c0.8,0.3,1.6,0.7,2.2,1.1c0.7,0.5,1.2,1,1.6,1.7c0.4,0.7,0.6,1.6,0.6,2.6
		c0,1.1-0.2,2-0.6,2.8c-0.4,0.7-0.9,1.4-1.5,1.8c-0.6,0.5-1.4,0.8-2.2,1c-0.8,0.2-1.7,0.3-2.6,0.3c-0.9,0-1.8-0.2-2.7-0.5
		c-0.9-0.3-1.8-0.8-2.5-1.4s-1.4-1.4-1.9-2.2C122.2,22.2,121.9,21.2,121.9,20z"/>
	<path class="st85" d="M140,20h3.3c0,0.5,0.2,1,0.4,1.5c0.2,0.5,0.6,0.9,1,1.3c0.4,0.4,0.9,0.7,1.4,0.9c0.5,0.2,1.1,0.3,1.7,0.3
		c1.3,0,2.3-0.2,2.9-0.7c0.6-0.5,0.9-1.1,0.9-1.9c0-0.5-0.1-1-0.2-1.3c-0.1-0.3-0.4-0.6-0.7-0.8c-0.3-0.2-0.7-0.4-1.1-0.6
		c-0.5-0.2-1-0.3-1.7-0.5c-0.2-0.1-0.4-0.1-0.6-0.2c-0.2-0.1-0.4-0.1-0.6-0.2c-0.1,0-0.2-0.1-0.2-0.1c-0.1,0-0.2,0-0.3-0.1l-0.1,0
		c-0.5-0.1-1-0.3-1.7-0.5s-1.3-0.5-1.9-1c-0.6-0.4-1.1-1-1.5-1.6c-0.4-0.7-0.6-1.5-0.6-2.5c0-1,0.2-1.8,0.6-2.6
		c0.4-0.7,1-1.4,1.6-1.9c0.6-0.5,1.4-0.9,2.1-1.2c0.8-0.3,1.5-0.4,2.2-0.4c1,0,2,0.1,3,0.4c0.9,0.3,1.7,0.7,2.4,1.3
		c0.7,0.6,1.2,1.3,1.7,2.1c0.4,0.8,0.6,1.8,0.6,2.9h-3.3c-0.1-1.1-0.4-1.9-1.1-2.6c-0.7-0.6-1.7-1-3-1c-0.5,0-0.9,0.1-1.4,0.2
		c-0.4,0.1-0.8,0.3-1.2,0.6c-0.3,0.3-0.6,0.6-0.8,0.9c-0.2,0.4-0.3,0.8-0.3,1.3c0,0.4,0.2,0.8,0.5,1.1c0.3,0.3,0.6,0.6,1,0.8
		c0.4,0.2,0.9,0.4,1.3,0.6c0.5,0.2,0.9,0.3,1.3,0.4c0.8,0.2,1.6,0.5,2.5,0.7c0.8,0.3,1.6,0.7,2.2,1.1c0.7,0.5,1.2,1,1.6,1.7
		c0.4,0.7,0.6,1.6,0.6,2.6c0,1.1-0.2,2-0.6,2.8c-0.4,0.7-0.9,1.4-1.5,1.8c-0.6,0.5-1.4,0.8-2.2,1c-0.8,0.2-1.7,0.3-2.6,0.3
		c-0.9,0-1.8-0.2-2.7-0.5c-0.9-0.3-1.8-0.8-2.5-1.4s-1.4-1.4-1.9-2.2C140.3,22.2,140.1,21.2,140,20z"/>
</g>
</svg>
