<?xml version="1.0" encoding="utf-8"?>
<!-- Generator: Adobe Illustrator 26.0.2, SVG Export Plug-In . SVG Version: 6.00 Build 0)  -->
<svg version="1.1" id="Bold" xmlns="http://www.w3.org/2000/svg" xmlns:xlink="http://www.w3.org/1999/xlink" x="0px" y="0px"
	 viewBox="0 0 500 500" style="enable-background:new 0 0 500 500;" xml:space="preserve">
<style type="text/css">
	.st0{fill:#FFFFFF;}
	.st1{fill-rule:evenodd;clip-rule:evenodd;}
	.st2{fill:#E40061;}
	.st3{fill-rule:evenodd;clip-rule:evenodd;fill:#FFFFFF;}
</style>
<g id="XMLID_00000107584254558570458780000007404536854221648778_">
	<path id="XMLID_00000181787152726763320950000009822429662233244301_" class="st0" d="M149.9,183.1H74.6c-3.4,0-6,2.7-6,6v241.7
		c0,3.4,2.7,6,6,6h75.2c3.4,0,6-2.7,6-6V189.2C155.9,185.9,153.2,183.1,149.9,183.1z"/>
	<path id="XMLID_00000173134879086422000930000016624753136364872116_" class="st0" d="M112.3,63c-27.4,0-49.7,22.2-49.7,49.7
		c0,27.3,22.2,49.6,49.7,49.6c27.3,0,49.6-22.2,49.6-49.6C161.9,85.2,139.6,63,112.3,63z"/>
	<path id="XMLID_00000036240257072899517970000015181638046911488167_" class="st0" d="M341.3,177.2c-30.2,0-52.6,12.9-66.1,27.8
		v-15.7c0-3.4-2.7-6-6-6H197c-3.4,0-6,2.7-6,6V431c0,3.4,2.7,6,6,6h75.1c3.4,0,6-2.7,6-6V311.4c0-40.3,11-56,39.1-56
		c30.6,0,33,25.1,33,58V431c0,3.4,2.7,6,6,6h75.1c3.4,0,6-2.7,6-6V298.4C437.4,238.4,425.9,177.2,341.3,177.2z"/>
</g>
</svg>
